<svg version="1.2" xmlns="http://www.w3.org/2000/svg" viewBox="0 0 1552 1538" width="1552" height="1538"><path fill="currentColor" class="a" d="m1231.1 399.7c-16-15.5-135.2 42.1-259.3 55.1-43.1 0.5-85.8 4.9-127.5 13.1-42.1 8.7-83.3 20.8-123 37.2-39.8 16-77.6 36.3-113.5 59.6-35.8 23.7-69.3 50.3-100.3 80.3-232.6 225.9-112.9 555.4-103.7 532.2-7.3-42.1-9.7-84.2-6.8-126.8 2.9-42.1 10.7-83.7 23.3-124.3 13.1-40.2 30.5-78.9 52.8-115.2 21.8-36.3 48.5-69.6 78.5-99.6 36.4-32 75.6-60 117.3-84.2 41.7-24.2 86.3-44.5 131.8-60 45.6-15.5 93.1-26.2 141.1-32.4 47.9-6.3 96.4-7.8 144.4-4.4 0-0.5-23.8 356.6-206 530.3-21.3 21.8-44.1 42.1-68.8 59.5-24.7 17.9-50.9 33.4-78.5 46.9-27.6 13.1-56.2 23.7-85.3 31.5-29.6 8.2-59.6 13.5-89.7 16.4l8.3-39.7q8.2-52.2 23.2-103c10.7-31.9 25.7-62.4 44.6-90.5q7.3-10.6 15-20.8 7.8-10.1 16-20.3 8.3-9.7 17-19.4 8.2-9.6 17.4-18.8c6.3-6.3 11.7-13.1 18-18.9 1.4-1 15-13.1 11.1-15.5-3.4-1.4-8.2 0-11.6 1.5q-2.4 0.5-5.3 1.4-3 1-5.9 2.4-2.4 1-5.3 2.5-2.4 1.4-5.3 2.9-15.5 8.2-30.1 18.8-18.9 13.6-35.8 30-21.4 19.9-39.8 42.6l-10.6 13.6q-5.4 7.2-10.7 14l-9.7 14.5-9.7 14.5q-21.8 34.8-39.2 72.1c-16.5 35.3-28.6 73.1-44.6 108.9q-6.3 13.5-13.1 26.6-6.3 13.5-13.6 26.6-7.2 13-15 25.6-7.8 13.1-16 25.7-5.8 9.6-13.6 18.4-7.7 8.7-16.9 15.4-9.2 7.3-19.9 12.1-10.2 4.9-21.8 7.3-17.9 3.9-35.9 4.3-9.2 0.5-18.4 1.5-9.2 1.5-17.9 3.9-8.7 2.4-17 6.3-8.7 3.3-16.5 8.2c-8.7 6.3-16.4 14-22.7 23.2-5.8 9.2-10.2 19.4-12.1 30-2.5 10.7-2.5 21.8-0.5 32.4 1.4 10.7 5.3 21.3 11.1 30.5 23.8 36.8 86.8 37.3 124.1 24.7q16-7.8 31-17.4 15-9.7 28.6-20.8 13.6-11.7 25.2-25.2 12.1-13.1 21.8-28.1l3.9-4.8 5.8-7.7c1.9-2.9 4.8-6.3 6.8-9.7l8.7-11.6 9.7-12.6 9.7-13.1 9.7-13 9.7-13.1c2.9-4.4 5.8-7.7 8.7-12.1 2.9-3.9 5.3-6.8 7.8-10.2l6.3-8.7 3.3-4.3q0-0.5 0.5-1l1-1 1-0.9q0-0.5 0.5-1 1.4-1 2.4-1.4l2.9-1q1-0.5 2.4-1 1.5-0.5 2.9-0.5 4.9-0.4 9.7-0.4h3.9l4.3-0.5q16-2 32-4.9 16-2.4 32-5.8 16-3.4 31.5-7.2 16-4.4 31.5-8.7 22.8-6.8 45.1-14.6 21.8-8.2 43.6-17.9 21.3-10.1 42.2-21.2 20.8-11.7 40.7-24.7 30.5-20.3 56.7-46.5c209.3-204.1 232.1-443.6 261.7-557.3 29.1-113.7 72.7-185.8 56.7-200.8z"/><path class="a" d="m732.8 5c-13.7 2.3-44.6 7.7-68.3 11.4-23.7 4.1-66.5 13.2-94.7 20.5-27.7 7.2-66.4 19.5-85.1 26.8-18.6 7.3-50.5 21.8-70.5 31.9-20.1 10-50.1 26.8-67.4 36.8-16.8 10.5-46.9 31.9-66.9 47.3-20 15.5-56 48.7-79.6 73.3-23.7 25-56.5 64.6-72.4 88.3-15.9 23.6-37.8 61.4-48.3 84.2-10.9 22.7-25 55-31.8 72.8-6.4 17.7-16.9 52.3-23.2 77.3-5.9 25-14.1 70.1-17.8 100.1-3.6 30.1-6.8 71-6.8 91 0 20 2.7 59.2 6.4 86.5 3.6 27.3 10 64.1 14.1 81.9 3.6 17.7 12.3 48.2 18.6 68.2 6.9 20.1 23.7 61 37.8 91 14.1 30.1 36 70.1 47.8 88.8 12.3 18.6 34.1 48.2 48.3 66 14.1 17.7 32.7 38.2 41.4 45.9 8.6 7.3 23.2 15 32.7 16.9q16.9 3.1 32.8-3.7c8.7-3.6 20-13.6 25-21.8 5-7.8 9.1-21.4 9.1-29.6 0-7.7-2.2-19.1-5.4-25-2.8-5.5-16.4-22.3-29.6-37.3-13.7-15.1-36-43.7-49.2-63.8-13.2-20-30.5-49.5-38.6-65.9-8.2-16.4-21.4-50.1-30.1-75.1-8.2-25-18.2-63.7-22.3-86.5-4.1-22.7-8.6-68.7-10-102.3-1.8-37.8-0.5-81.5 3.2-113.8 2.7-28.7 11.4-76 18.6-104.7 8.2-32.7 22.4-70.9 37.4-102.3 13.2-27.3 31.4-61.5 40.5-75.1 8.6-13.7 28.2-40.5 43.2-59.2 15-18.6 44.6-48.7 65.6-66.4 20.9-17.8 50.5-40.5 65.5-50.5 15-10 46.4-27.8 69.6-39.6 22.8-11.4 66-29.1 95.1-38.7 29.6-10 76.5-22.3 103.8-27.7 27.3-5 78.8-11.9 113.8-14.6 46.4-3.6 81-3.6 127.4 0 35.1 2.7 85.1 9.1 111.5 14.1 26.4 5 70.6 16.8 97.9 25.9 27.3 9.1 67.4 24.6 88.8 34.2 21.3 10 59.1 31.8 84.2 48.7 27.7 18.6 65 50 95.5 80 27.3 27.3 53.7 51.5 58.3 53.3 4.1 2.3 15.9 4.1 25.9 4.1 10 0 24.1-3.2 31.9-6.9 7.7-3.6 16.8-13.1 20.5-20.4 3.6-7.3 6.8-20.5 6.8-28.7-0.5-7.7-2.7-18.7-5.9-24.1-3.2-5-12.8-18.2-21.4-28.7-8.7-10.9-32.3-34.1-52.4-51.4-20-17.7-55.9-45-79.6-61-23.7-15.4-66-39.6-93.3-53.2-27.3-14.1-71.5-32.3-97.9-41-26.4-8.6-67.3-20-91-25-23.7-5.4-71-13.6-104.7-19.1-46.8-6.8-81-9.1-145.6-8.6-46.4 0.4-95.6 2.2-109.2 4.5zm725 1144.4c-5.9 4.1-23.2 22.3-38.7 41.4-15.9 18.7-45.1 48.2-65.1 65.1-20 16.8-49.6 39.1-66 50-16.4 11-52.3 30.5-79.6 43.7-27.3 13.2-68.3 30-91.1 37.3-22.7 7.3-64.6 18.2-93.3 24.1-47.3 10.1-63.7 11-172.9 11-97.4 0-128.4-1.9-161.6-8.2-22.7-4.6-60.5-13.2-84.2-19.6-26.8-7.3-48.7-10.5-58.2-9.1-8.2 1.8-19.1 8.2-26 16.4-8.2 9.5-11.4 19.1-11.4 32.8-0.4 14.1 2.8 22.7 10.1 31.4 5.9 6.3 18.6 15.9 28.6 20.9 10 5.4 41.9 14.5 70.6 20.9 28.7 6.4 71.9 14.1 95.6 17.3 23.6 3.2 83.2 5.9 131.9 5.9 48.7 0 108.4-2.7 132-5.9 23.7-2.7 66.9-10.5 95.6-16.8 28.7-6.4 76.9-20.1 107-30.1 30-10 75.1-28.2 100.1-40 25-11.8 61.9-32.8 81.9-46 20-12.7 49.6-34.1 66-47.3 16.4-12.7 46.9-41.9 68.3-64.6 21.4-22.3 42.3-48.7 47.3-58.7 5.5-11.8 7.8-22.8 5.9-33.7-1.8-10-8.6-21.4-19.1-30.9-13.6-12.8-19.1-14.6-40-14.1-13.2 0-28.3 3.2-33.7 6.8z"/></svg>
