<?xml version="1.0" encoding="UTF-8" standalone="no"?>
<!-- Created with Inkscape (http://www.inkscape.org/) -->

<svg
   width="512"
   height="512"
   viewBox="0 0 512 512"
   version="1.1"
   id="svg1"
   inkscape:version="1.4.2 (ebf0e940d0, 2025-05-08)"
   sodipodi:docname="geico.svg"
   xmlns:inkscape="http://www.inkscape.org/namespaces/inkscape"
   xmlns:sodipodi="http://sodipodi.sourceforge.net/DTD/sodipodi-0.dtd"
   xmlns="http://www.w3.org/2000/svg"
   xmlns:svg="http://www.w3.org/2000/svg">
  <sodipodi:namedview
     id="namedview1"
     pagecolor="#505050"
     bordercolor="#ffffff"
     borderopacity="1"
     inkscape:showpageshadow="0"
     inkscape:pageopacity="0"
     inkscape:pagecheckerboard="1"
     inkscape:deskcolor="#505050"
     inkscape:document-units="px"
     inkscape:zoom="1.5965145"
     inkscape:cx="270.90264"
     inkscape:cy="239.27123"
     inkscape:window-width="2556"
     inkscape:window-height="1364"
     inkscape:window-x="0"
     inkscape:window-y="0"
     inkscape:window-maximized="1"
     inkscape:current-layer="layer1" />
  <defs
     id="defs1" />
  <g
     inkscape:label="Layer 1"
     inkscape:groupmode="layer"
     id="layer1">
    <g
       fill="none"
       stroke-width="2"
       id="g133"
       transform="matrix(1.297365,0,0,1.297365,-252.67917,-110.23341)">
      <path
         stroke="#c6c7b8"
         d="m 336.29,172.25 c -4.3,8.86 -2.43,22.7 -2.75,32.5"
         vector-effect="non-scaling-stroke"
         id="path1" />
      <path
         stroke="#b1bb9e"
         d="m 333.54,204.75 0.13,2.53"
         vector-effect="non-scaling-stroke"
         id="path2" />
      <path
         stroke="#bccfa3"
         d="m 333.67,207.28 q 3.11,10.3 11.04,17.47"
         vector-effect="non-scaling-stroke"
         id="path3" />
      <path
         stroke="#b1bb9e"
         d="m 344.71,224.75 c 3.5,4.31 6.86,8.1 8.28,13.52 q 1.76,6.69 1.51,13.69"
         vector-effect="non-scaling-stroke"
         id="path4" />
      <path
         stroke="#bccfa3"
         d="m 354.5,251.96 q -0.76,5.84 -3.06,11.27 -0.2,0.47 -0.64,0.75 c -8.71,5.41 -18.1,8.35 -21.76,19.27"
         vector-effect="non-scaling-stroke"
         id="path5" />
      <path
         stroke="#b1bb9e"
         d="m 329.04,283.25 c -3.28,10.94 -8.77,20.72 -14.79,31.21"
         vector-effect="non-scaling-stroke"
         id="path6" />
      <path
         stroke="#a4ae90"
         d="m 314.25,314.46 -3.5,5"
         vector-effect="non-scaling-stroke"
         id="path7" />
      <path
         stroke="#ceddc5"
         d="m 310.75,319.46 -1.96,3.04"
         vector-effect="non-scaling-stroke"
         id="path8" />
      <path
         stroke="#b1bb9e"
         d="m 308.79,322.5 c -4.75,5.62 -0.68,9.03 2.96,13.21"
         vector-effect="non-scaling-stroke"
         id="path9" />
      <path
         stroke="#8097bf"
         d="m 311.75,335.71 -19.72,-0.24 q -0.53,0 -0.53,0.53 v 67.88 q 0,0.38 0.38,0.38 l 74.65,0.01 q 0.55,0 0.55,-0.55 l 0.03,-15.54 q 0,-0.43 -0.43,-0.43 H 313 q -0.5,0 -0.5,-0.5 v -10 q 0,-1 1,-1 h 49.4 q 0.6,0.01 0.6,-0.59 V 363.5 q 0,-0.5 -0.5,-0.5 h -49.75 a 0.75,0.75 0 0 1 -0.75,-0.75 v -10.21 q 0,-0.51 0.51,-0.51 l 32.24,0.01"
         vector-effect="non-scaling-stroke"
         id="path10" />
      <path
         stroke="#b1bb9e"
         d="m 345.25,351.54 q 2.44,2.39 5,-0.08"
         vector-effect="non-scaling-stroke"
         id="path11" />
      <path
         stroke="#8097bf"
         d="m 350.25,351.46 15.48,0.07 q 0.63,0 0.62,-0.62 L 366.04,336"
         vector-effect="non-scaling-stroke"
         id="path12" />
      <path
         stroke="#c6c7b8"
         d="m 366.04,336 q 3.81,-1.1 7.71,-0.21"
         vector-effect="non-scaling-stroke"
         id="path13" />
      <path
         stroke="#8097bf"
         d="m 373.75,335.79 0.01,68.06 q 0,0.4 0.4,0.41 l 19.44,0.08 a 0.64,0.64 0 0 0 0.65,-0.64 l -0.04,-67.95"
         vector-effect="non-scaling-stroke"
         id="path14" />
      <path
         stroke="#c6c7b8"
         d="m 394.21,335.75 0.75,-0.5"
         vector-effect="non-scaling-stroke"
         id="path15" />
      <path
         stroke="#a4ae90"
         d="m 394.96,335.25 q 2.22,2.06 5.04,1.75 6.21,-0.68 11.54,0.75"
         vector-effect="non-scaling-stroke"
         id="path16" />
      <path
         stroke="#8097bf"
         d="m 411.54,337.75 q -2.36,2.18 -5,4.05 c -4.12,2.92 -6.03,14.17 -6.04,19.13 -0.04,14.26 -3.59,38.64 16.12,42.58 q 5.91,1.18 13.38,1.21 18.72,0.09 37.44,-0.13 c 9.66,-0.11 17.72,-2.12 21.32,-12.1 q 1.02,-2.84 0.55,-13.69 -0.03,-0.55 -0.57,-0.55 H 469.7 q -1.45,0 -1.42,1.45 c 0.16,7.09 -4.92,7.82 -10.77,7.84 q -12.4,0.03 -24.73,-0.11 c -10.65,-0.13 -10.3,-7.65 -10.34,-16.37 -0.04,-8.42 -1.18,-17.92 10.66,-18.2 q 14.04,-0.32 28.13,0.06 c 4.71,0.13 6.93,2.69 6.77,7.3 q -0.02,0.53 0.51,0.53 h 19.76 q 0.64,0 0.68,-0.64 c 1.46,-24.33 -15.87,-25.22 -34.7,-25.4"
         vector-effect="non-scaling-stroke"
         id="path17" />
      <path
         stroke="#ceddc5"
         d="m 454.25,334.71 q 1.36,-2.35 3.55,-4.04 0.4,-0.31 0.54,-0.8 1.17,-3.97 -0.3,-6.93 -9.86,-19.95 -14.43,-38.25"
         vector-effect="non-scaling-stroke"
         id="path18" />
      <path
         stroke="#e9efd5"
         d="M 443.61,284.69 Q 440.78,277 433.79,272.75"
         vector-effect="non-scaling-stroke"
         id="path19" />
      <path
         stroke="#ceddc5"
         d="m 433.79,272.75 q -3.15,-2.38 -6.67,-4.11 C 421.74,266 416.97,252.78 415.46,247.25"
         vector-effect="non-scaling-stroke"
         id="path20" />
      <path
         stroke="#e9efd5"
         d="m 415.46,247.25 q -0.06,-4.02 0.31,-8.02 c 0.29,-3.17 -1.33,-5.48 3.14,-6.71 9.68,-2.65 25.07,-11.5 25.83,-23 0.12,-1.86 1.21,-14.63 0.13,-16.36 q -0.27,-0.44 -0.08,-0.91 0.72,-1.83 0.67,-3.75"
         vector-effect="non-scaling-stroke"
         id="path21" />
      <path
         stroke="#dac59d"
         d="m 445.46,188.5 c 2.44,-6.9 3.91,-14.2 -0.67,-20.5"
         vector-effect="non-scaling-stroke"
         id="path22" />
      <path
         stroke="#8b8b8a"
         d="m 444.79,168 q -1.77,-3.07 -4.54,-5.29"
         vector-effect="non-scaling-stroke"
         id="path23" />
      <path
         stroke="#ceddc5"
         d="m 440.25,162.71 -1.54,-1.46"
         vector-effect="non-scaling-stroke"
         id="path24" />
      <path
         stroke="#e9efd5"
         d="m 438.71,161.25 -4.55,-4.84"
         vector-effect="non-scaling-stroke"
         id="path25" />
      <path
         stroke="#ceddc5"
         d="m 434.16,156.41 q -5.08,-4.03 -11.42,-3.55 c -3.78,0.29 -6.24,2.29 -10.22,1.67 -3.34,-0.53 -6.82,-1.36 -10.08,-1.3 -6.89,0.13 -12.77,2.38 -19.63,2.02 -4.03,-0.21 -7.59,-1.12 -11.87,-0.54 q -7.19,0.98 -14.46,0.85 c -10.6,-0.2 -17.98,6.31 -20.19,16.69"
         vector-effect="non-scaling-stroke"
         id="path26" />
      <path
         stroke="#b8cd9a"
         d="m 434.16,156.41 q -2.42,3.08 -6.16,2.3"
         vector-effect="non-scaling-stroke"
         id="path27" />
      <path
         stroke="#8bad69"
         d="m 428,158.71 1.8,-2.81 a 0.57,0.57 0 0 0 -0.67,-0.84 q -4.84,1.77 -5.35,6.96 -0.81,8.37 -1.28,16.78 c -0.05,0.84 -0.5,1.3 -1.32,0.88 q -0.46,-0.24 -0.56,-0.74 c -0.84,-4.08 0.26,-9.57 0.19,-13.88 -0.05,-3.67 -0.44,-5.93 2.14,-9.03 a 1.24,1.24 0 0 0 -0.85,-2.02 q -3.9,-0.34 -6.79,2.31 -0.34,0.31 -0.78,0.18 -1.86,-0.56 -3.53,0.21"
         vector-effect="non-scaling-stroke"
         id="path28" />
      <path
         stroke="#809964"
         d="m 411,156.71 -1,0.5"
         vector-effect="non-scaling-stroke"
         id="path29" />
      <path
         stroke="#a9a363"
         d="m 410,157.21 q -4.12,-1.76 -8.08,0.63 -0.51,0.31 -1.01,0 -2.81,-1.73 -6.04,-0.77 -0.49,0.14 -0.95,-0.06 c -0.6,-0.25 -1,-0.31 -1.64,-0.05 -4.29,1.77 -6.66,2.77 -10.59,1.67 q -0.48,-0.13 -0.93,0.08 c -4.28,2.01 -9.52,-0.07 -14.38,-0.17 a 1.27,1.27 0 0 0 -0.89,2.21 c 4.53,4.16 9.27,2.81 14.28,5.73 q 1.21,0.71 2.14,-0.35 2.31,-2.65 4.88,-0.38"
         vector-effect="non-scaling-stroke"
         id="path30" />
      <path
         stroke="#8bad69"
         d="m 386.79,165.75 q 0.75,0.89 1.95,1.38 0.65,0.26 0.57,0.95 l -0.32,2.67 q -0.07,0.59 0.33,1.03 l 4.72,5.26 q 0.41,0.45 0.48,1.05 0.41,3.15 3.12,4.85 0.56,0.36 0.04,0.77 c -4.47,3.54 -8.04,0.64 -12.74,1.71 q -5,1.13 -7.52,1.4 -0.52,0.06 -0.59,-0.46 -0.22,-1.93 -1.43,-3.45 a 2.02,2.02 0 0 1 0.47,-2.94 l 2.85,-1.87 q 0.55,-0.37 0.24,-0.96 l -0.2,-0.37 q -0.2,-0.38 -0.63,-0.42 l -3.08,-0.3 q -0.48,-0.04 -0.9,0.18 -1.18,0.63 -2.16,-0.24 -4.72,-4.21 -8.71,-10.68"
         vector-effect="non-scaling-stroke"
         id="path31" />
      <path
         stroke="#738c56"
         d="m 363.28,165.31 c -1.17,-2.45 -8.09,-10.14 -11.33,-7.54 a 0.77,0.77 0 0 0 0.25,1.33 q 6.7,2.14 8.34,8.65"
         vector-effect="non-scaling-stroke"
         id="path32" />
      <path
         stroke="#95a57e"
         d="m 360.54,167.75 -0.04,4.18 q 0,0.59 -0.58,0.7 l -0.63,0.12 q -0.5,0.1 -0.62,-0.4 c -0.88,-3.73 -0.24,-7.5 -5.24,-7.94 q -3.79,-0.33 -6.68,0.8"
         vector-effect="non-scaling-stroke"
         id="path33" />
      <path
         stroke="#5a6950"
         d="m 346.75,165.21 q -6.46,1.28 -9.54,7.04"
         vector-effect="non-scaling-stroke"
         id="path34" />
      <path
         stroke="#95a57e"
         d="m 337.21,172.25 h -0.92"
         vector-effect="non-scaling-stroke"
         id="path35" />
      <path
         stroke="#788257"
         d="m 369.25,212.96 q -3.76,1.2 -7.24,-0.24 c -3.45,-1.43 -4.51,0.72 -7.24,1.21 q -6.33,1.14 -11.94,-2.05 c -1.38,-0.79 -1.44,-1.86 -3.16,-2.54 q -0.5,-0.19 -0.77,-0.66 c -0.93,-1.64 -3.22,-6.09 -5.36,-3.93"
         vector-effect="non-scaling-stroke"
         id="path36" />
      <path
         stroke="#525243"
         d="m 337.21,172.25 c -0.97,3.93 -1.21,9.5 1.84,12.78 q 0.34,0.37 0.46,0.85 l 0.77,3 q 0.17,0.65 -0.47,0.86 l -1.9,0.63 a 0.98,0.97 -25.1 0 0 -0.53,1.45 l 2.37,3.77 q 0.31,0.48 0.85,0.65 c 6.66,2.1 13.78,-1.07 17.15,-6.99 1.17,-2.05 0.77,-4.21 0.71,-6.5"
         vector-effect="non-scaling-stroke"
         id="path37" />
      <path
         stroke="#706f55"
         d="m 358.46,182.75 q 0.54,-3.35 -0.45,-6.47 -0.16,-0.49 -0.67,-0.51 -0.43,-0.01 -0.8,-0.27"
         vector-effect="non-scaling-stroke"
         id="path38" />
      <path
         stroke="#525243"
         d="m 356.54,175.5 q -2.3,-7.59 -9.79,-10.29"
         vector-effect="non-scaling-stroke"
         id="path39" />
      <path
         stroke="#a5bf79"
         d="m 428,158.71 c -2.56,5.25 -1.69,9.75 -2.06,15.19 q -0.27,4.09 0.72,8.1 0.76,3.12 -2.11,3.62 -0.85,0.15 -0.14,0.64 c 1.07,0.74 1.73,1.42 3.12,1.58 q 2.26,0.27 4.49,0.97"
         vector-effect="non-scaling-stroke"
         id="path40" />
      <path
         stroke="#485b2e"
         d="m 432.02,188.81 3.73,1.23"
         vector-effect="non-scaling-stroke"
         id="path41" />
      <path
         stroke="#a5bf79"
         d="m 435.75,190.04 q -0.48,0.51 -0.66,1.37 -0.12,0.54 0.37,0.8 4.01,2.13 7.39,5.13"
         vector-effect="non-scaling-stroke"
         id="path42" />
      <path
         stroke="#8bad69"
         d="m 442.85,197.34 q -1.55,1.73 -3.62,2.07 -0.55,0.09 -0.67,-0.46 -0.98,-4.51 -5.65,-4.56 -0.49,0 -0.66,0.47 -1.07,2.96 -4.51,3.03 -1.32,0.03 -1.45,-1.21 -0.06,-0.53 -0.58,-0.65 -1.89,-0.45 -2.76,1.15 -0.24,0.43 -0.73,0.39 c -5.14,-0.5 -8.38,-5.58 -13.29,-1.91 q -0.41,0.31 -0.93,0.3 l -6.7,-0.1 q -0.07,-0.01 -0.12,-0.06 l -0.25,-0.24 q -0.35,-0.36 -0.85,-0.42 c -4.12,-0.56 -9.45,-1.29 -13.21,0.91 q -4.33,2.54 -8.24,5.71 -0.38,0.31 -0.32,0.81 0.1,0.74 0.69,1.22"
         vector-effect="non-scaling-stroke"
         id="path43" />
      <path
         stroke="#6e8b42"
         d="m 379,203.79 q -1.99,1.07 -2.29,3.26 -0.07,0.5 0.27,0.88 l 2.98,3.33 q 0.38,0.42 0.29,0.98 c -0.62,3.65 -2.64,2.48 -5.11,2.07 q -2.91,-0.49 -5.88,-0.8 -2.55,-0.26 0.02,-0.26 h 0.54 q 0.44,0 0.04,-0.19 -0.32,-0.15 -0.61,-0.1"
         vector-effect="non-scaling-stroke"
         id="path44" />
      <path
         stroke="#83975c"
         d="m 369.25,212.96 q 1.24,-0.91 1.24,-2.36 -0.01,-0.56 -0.52,-0.78 -4.83,-2.07 -9.98,-1.73 c -2.67,0.17 -4.34,2.08 -6.19,3.8 q -0.4,0.37 -0.92,0.19 l -8.87,-3.09 q -0.41,-0.14 -0.72,-0.46 L 338.04,203"
         vector-effect="non-scaling-stroke"
         id="path45" />
      <path
         stroke="#607e34"
         d="m 338.04,203 q 4.31,0.08 7.69,2.85 0.35,0.29 0.8,0.22 4.77,-0.73 8.58,2.08 0.42,0.31 0.88,0.05 1.3,-0.74 2.59,-1.49 c 2.34,-1.35 5.09,-1.24 7.67,-2.32 q 0.44,-0.19 0.58,-0.65 c 0.63,-2 4.92,-1.39 6.86,-2.33 2.83,-1.37 5.71,-1.8 8.17,-3.68 q 1.76,-1.34 3.56,-2.69 0.45,-0.33 0.39,-0.88 c -0.33,-2.87 -4.53,-4.16 -7.28,-5.17 q -0.47,-0.17 -0.94,0.02 l -3.36,1.34 q -1.02,0.41 -0.81,-0.67 l 0.76,-3.85 q 0.08,-0.41 -0.31,-0.58 -3.19,-1.39 -4.18,-4.71 -0.15,-0.53 -0.57,-0.89 -1.79,-1.53 -1.62,-3.93 0.03,-0.49 -0.28,-0.87 -3.37,-4.06 -3.94,-9.54"
         vector-effect="non-scaling-stroke"
         id="path46" />
      <path
         stroke="#979541"
         d="m 386.79,165.75 q 3.03,0.32 4.48,-1.88 a 1.34,1.33 -37.8 0 1 2.38,0.3 q 0.67,2 2.29,3.32 0.39,0.32 0.62,-0.13 0.83,-1.67 0.04,-3.32 -0.27,-0.57 0.36,-0.59 l 7.5,-0.28 q 0.5,-0.02 0.86,-0.37 l 3.64,-3.55"
         vector-effect="non-scaling-stroke"
         id="path47" />
      <path
         stroke="#6e8b42"
         d="m 408.96,159.25 c 1.89,0.75 2.29,2.98 3.75,4.31 a 1.56,1.56 0 0 0 2.52,-0.64 l 1.29,-3.67 q 0.19,-0.54 -0.36,-0.73 L 411,156.71"
         vector-effect="non-scaling-stroke"
         id="path48" />
      <path
         stroke="#b8cd9a"
         d="M 438.71,161.25 438,161.29"
         vector-effect="non-scaling-stroke"
         id="path49" />
      <path
         stroke="#757a60"
         d="m 438,161.29 q -2.8,-1.14 -5,1"
         vector-effect="non-scaling-stroke"
         id="path50" />
      <path
         stroke="#b0b68e"
         d="m 433,162.29 q -2.29,0.71 -2.71,2.96"
         vector-effect="non-scaling-stroke"
         id="path51" />
      <path
         stroke="#757a60"
         d="m 430.29,165.25 c -2.94,7.29 -3.44,17.11 1.73,23.56"
         vector-effect="non-scaling-stroke"
         id="path52" />
      <path
         stroke="#8c813c"
         d="m 410,157.21 -1.04,2.04"
         vector-effect="non-scaling-stroke"
         id="path53" />
      <path
         stroke="#6b7649"
         d="m 338.04,203 -2.17,-4.12 q -0.23,-0.43 0.2,-0.68 l 0.8,-0.47 q 0.53,-0.32 0.75,0.26 c 2.24,6.08 23.3,-2.84 23.76,-11.34 0.35,-6.55 1.37,-12.07 -0.84,-18.9"
         vector-effect="non-scaling-stroke"
         id="path54" />
      <path
         stroke="#353327"
         d="m 356.54,175.5 -0.5,1.44 q -0.19,0.53 0.24,0.9 2.19,1.9 2.18,4.91"
         vector-effect="non-scaling-stroke"
         id="path55" />
      <path
         stroke="#788257"
         d="m 407.75,220.04 c -3,-0.18 -6.58,3.26 -9.55,4.15 a 0.89,0.89 0 0 0 0.17,1.74 q 5.99,0.58 11.26,2.23 c 6.79,2.14 -1.95,8.07 -4.8,8.62 q -0.51,0.1 -0.79,0.54 c -0.94,1.47 -6.23,2.4 -8.16,3.4 -7.74,4 -16.63,1.9 -24.52,-0.78 q -0.5,-0.16 -0.84,0.23 -1.8,2.02 -4.53,1.84 -0.65,-0.04 -0.81,0.59 -0.36,1.42 0.72,3.22 c 2.27,3.76 1.52,8.2 2.99,12.35 1.24,3.52 -0.13,7.04 -0.59,10.43 q 0,0.05 -0.05,0.07 -0.15,0.04 -0.28,0.09 -0.28,0.11 -0.34,0.4 -0.53,2.58 -2.84,3.84"
         vector-effect="non-scaling-stroke"
         id="path56" />
      <path
         stroke="#566a2f"
         d="m 364.79,273 q 3.31,-5.61 2.74,-11.97 c -0.19,-2.07 -1.4,-4.46 -1.26,-7.17 q 0.02,-0.51 -0.29,-0.91 l -5.36,-7.11 q -0.25,-0.34 -0.64,-0.49 -0.59,-0.23 -1.03,-0.06 -0.44,0.17 -0.43,0.65 l 0.11,4.84 q 0.01,0.53 -0.41,0.87 -2.71,2.16 -0.91,6.11 c 2.89,6.35 -4.39,6.95 -5.65,11.76 -0.83,3.16 -1.78,4.34 -4.08,6.18 -1.62,1.3 -4.04,1.45 -5.98,3.16 q -0.39,0.34 -0.9,0.25 -5.65,-1.02 -9.91,2.67 -0.41,0.36 -0.44,0.91 -0.08,1.76 -1.01,3.25 -0.28,0.44 -0.19,0.95 c 1.45,8.42 10.7,-1.1 12.78,9.17 q 0.1,0.5 0.45,0.87 0.88,0.94 1.12,2.28"
         vector-effect="non-scaling-stroke"
         id="path57" />
      <path
         stroke="#b1bb9e"
         d="m 343.5,299.21 q -0.73,0.12 -0.97,0.8 -3.37,9.94 -10.53,17.53"
         vector-effect="non-scaling-stroke"
         id="path58" />
      <path
         stroke="#809964"
         d="m 332,317.54 q -0.37,0.19 -0.7,0.19"
         vector-effect="non-scaling-stroke"
         id="path59" />
      <path
         stroke="#566a2f"
         d="m 331.3,317.73 q 0.15,-2.57 -1.92,-2.46 c -2.39,0.13 -4.12,-0.06 -6.33,-0.29 -1.79,-0.18 -4.63,0.26 -7.06,-0.74 q -0.45,-0.19 -0.92,-0.04 l -0.82,0.26"
         vector-effect="non-scaling-stroke"
         id="path60" />
      <path
         stroke="#6e8b42"
         d="m 329.04,283.25 q 1.62,-1.75 2.03,-4.18 0.09,-0.5 0.58,-0.57 c 3.33,-0.51 6.63,-2.14 9.43,-2.85 q 3.86,-0.99 7.65,-2.22 c 2.58,-0.83 0.2,-3.05 2.12,-4.15 q 0.44,-0.25 0.58,-0.74 1.15,-4.21 4.74,-6.86 0.32,-0.24 0.41,-0.64 0.56,-2.57 -1.42,-4.2 -0.36,-0.3 -0.27,-0.75 0.44,-2.2 -0.39,-4.13 m -9.79,-27.21 -0.57,-1.24 q -0.23,-0.5 0.05,-0.97 l 2.06,-3.5 a 1.06,1.06 0 0 1 1.78,-0.08 q 1.16,1.65 2.72,2.08"
         vector-effect="non-scaling-stroke"
         id="path61" />
      <path
         stroke="#5b633b"
         d="m 350.75,221.04 -1.43,1.2 a 1.44,1.43 -43.8 0 0 -0.05,2.17 l 3.72,3.36 q 0.4,0.37 0.93,0.47 2.75,0.55 4.52,3.56 c 1.26,2.13 8.35,8.93 11.44,6.51 q 0.4,-0.31 0.89,-0.33 c 2.17,-0.07 3.79,0.88 5.74,1.01 q 4.42,0.28 8.82,0.7 c 2.95,0.28 4.3,2.26 7.75,-0.13 1.55,-1.07 18.06,-6.74 12.58,-10.91 -3.45,-2.63 -11.41,-2.91 -15.74,-3.46 -7.03,-0.89 -16.16,-0.53 -24.18,-1.91 -1.5,-0.26 -2.37,-1.04 -4.03,-1.05 q -4.58,-0.01 -8.96,-1.27"
         vector-effect="non-scaling-stroke"
         id="path62" />
      <path
         stroke="#6e8b42"
         d="m 352.75,220.96 q 1.61,0.06 1.5,-1.42"
         vector-effect="non-scaling-stroke"
         id="path63" />
      <path
         stroke="#5b633b"
         d="m 354.25,219.54 q 13.61,-0.1 26.72,3.07 c 3.5,0.84 12.32,1.34 14.89,-1.71 q 0.4,-0.48 0.03,-0.98 c -2.43,-3.23 -6.45,-0.1 -10.21,-1.61 q -0.46,-0.19 -0.95,-0.13 c -4.37,0.57 -8.31,-2.69 -11.72,-0.92 q -0.47,0.24 -0.95,0.01 -3.12,-1.52 -6.53,-0.65 -0.72,0.19 -1.51,-0.52 -0.34,-0.31 -0.8,-0.35 -7.84,-0.66 -15.55,0.52"
         vector-effect="non-scaling-stroke"
         id="path64" />
      <path
         stroke="#6e8b42"
         d="m 347.67,216.27 q -2.92,-0.04 -5.2,-1.91 c -3.17,-2.6 -6.16,-4.15 -8.8,-7.08"
         vector-effect="non-scaling-stroke"
         id="path65" />
      <path
         stroke="#b8cd9a"
         d="m 415.46,247.25 -1.08,-12.32"
         vector-effect="non-scaling-stroke"
         id="path66" />
      <path
         stroke="#b0b68e"
         d="m 414.38,234.93 c 4.34,-4.96 10.59,-3.4 15.66,-8.16 1.95,-1.83 3.52,-2.74 5.71,-3.85 a 0.77,0.77 0 0 0 -0.1,-1.42 c -2.78,-0.95 -3.96,1.03 -5.75,1.71 -3.36,1.27 -8.49,3.19 -12.49,2.64 q -3.14,-0.42 -3.25,-0.42 c -3.62,-0.07 -6.65,0.48 -9.69,-2.16 q -0.47,-0.4 0.02,-0.78 l 3.26,-2.45"
         vector-effect="non-scaling-stroke"
         id="path67" />
      <path
         stroke="#9baa74"
         d="m 407.75,220.04 q 5.11,0.07 10.05,-1.16 c 3.6,-0.89 7.26,-0.49 10.9,-2.65 q 0.38,-0.23 0.82,-0.23 h 4.62 q 0.19,0 0.29,-0.17 l 0.2,-0.32 q 0.23,-0.38 0.63,-0.57 3.31,-1.52 6.17,-3.78 0.97,-0.77 -0.23,-0.46 c -2.11,0.54 -4.08,1.66 -5.92,2.1 -6.79,1.65 -13.53,3.51 -20.43,3.82 q -8.58,0.38 -17.19,-0.08 c -2.14,-0.11 -3.53,-1 -5.46,-1.64 a 1.09,1.09 0 0 1 -0.38,-1.86 l 3.18,-2.82 q 0.34,-0.3 0.44,-0.75 0.66,-3.19 -2.52,-3.48 -0.56,-0.05 -0.86,-0.53 l -0.68,-1.09 q -0.26,-0.42 -0.7,-0.63 -2.13,-1.02 -3.68,-2.78"
         vector-effect="non-scaling-stroke"
         id="path68" />
      <path
         stroke="#b8cd9a"
         d="m 387,200.96 -0.83,-0.69 q -0.38,-0.31 -0.32,-0.79 c 0.42,-3.16 6.47,3.45 9.73,0.62 q 0.42,-0.36 0.88,-0.06 3.4,2.17 6.84,-0.25 0.46,-0.32 1.01,-0.26 l 8.07,0.77 q 0.47,0.04 0.55,0.51 c 0.42,2.67 -1.19,4.74 -0.62,6.7 0.83,2.91 4.79,1.52 6.36,-0.07 2.31,-2.33 3.75,-3.64 6.83,-2.1 q 0.43,0.22 0.91,0.22 l 11.7,0.16 q 0.41,0 0.62,-0.34 c 1.9,-3.09 4.72,-3.61 4.12,-8.04"
         vector-effect="non-scaling-stroke"
         id="path69" />
      <path
         stroke="#809964"
         d="m 387,200.96 -2,0.33"
         vector-effect="non-scaling-stroke"
         id="path70" />
      <path
         stroke="#5a6950"
         d="m 385,201.29 q -2.53,-0.41 -4.35,2.17"
         vector-effect="non-scaling-stroke"
         id="path71" />
      <path
         stroke="#809964"
         d="M 380.65,203.46 379,203.79"
         vector-effect="non-scaling-stroke"
         id="path72" />
      <path
         stroke="#5a6950"
         d="m 438,161.29 2.25,1.42"
         vector-effect="non-scaling-stroke"
         id="path73" />
      <path
         stroke="#665128"
         d="m 444.79,168 q -0.14,2.18 1.02,4.19 0.26,0.45 -0.09,0.83 l -1.51,1.69 q -0.34,0.37 -0.32,0.87 0.27,5.84 -2.78,10.59"
         vector-effect="non-scaling-stroke"
         id="path74" />
      <path
         stroke="#757a60"
         d="m 441.11,186.17 -5.36,3.87"
         vector-effect="non-scaling-stroke"
         id="path75" />
      <path
         stroke="#525243"
         d="m 430.29,165.25 q 1.77,-1.09 2.71,-2.96"
         vector-effect="non-scaling-stroke"
         id="path76" />
      <path
         stroke="#566a2f"
         d="m 354.69,295.53 q -2.58,1.87 -4.44,4.51 -0.29,0.41 -0.73,0.66 l -3.98,2.3"
         vector-effect="non-scaling-stroke"
         id="path77" />
      <path
         stroke="#a4ae90"
         d="m 345.54,303 q -0.35,-2.31 -2.04,-3.79"
         vector-effect="non-scaling-stroke"
         id="path78" />
      <path
         stroke="#ceddc5"
         d="M 333.25,318.96 332,317.54"
         vector-effect="non-scaling-stroke"
         id="path79" />
      <path
         stroke="#95a57e"
         d="m 414.38,234.93 q -0.67,9.61 0.68,19.06 0.24,1.69 -0.73,3.77 -0.22,0.47 -0.13,0.99 0.38,2.13 -0.93,3.75 -0.38,0.47 -0.96,0.27 c -2.25,-0.78 -4.88,-2.58 -7.33,-1.45 q -0.45,0.21 -0.9,0 L 401.29,260"
         vector-effect="non-scaling-stroke"
         id="path80" />
      <path
         stroke="#9f9e80"
         d="m 401.29,260 c -0.55,-1.64 0.31,-3.94 -1.44,-5.33 q -0.57,-0.45 0.09,-0.75 0.4,-0.18 0.86,0 1.02,0.39 0.48,-0.56 c -0.34,-0.59 -1.84,-1.34 -1.99,-0.14 q -0.04,0.33 -0.34,0.48 c -2.9,1.45 -5.86,0.91 -8.44,2.11 q -2.82,1.31 -5.3,3.23 -0.4,0.31 -0.9,0.36 l -3.35,0.31 q -0.49,0.05 -0.82,0.41 c -2.91,3.23 -5.12,5.86 -6.69,10.25 -1.64,4.55 -3.38,9.04 -7.19,12.33 -3.91,3.37 -7.28,8.04 -5.66,13.3 q 1.12,3.63 1.23,4.67 c 0.49,4.35 0.01,10.2 3.7,13.43 2.85,2.48 5.79,5.94 9.51,6.99 q 7.29,2.05 14.63,4.13"
         vector-effect="non-scaling-stroke"
         id="path81" />
      <path
         stroke="#6b7649"
         d="m 389.67,325.22 -0.16,1.07 q -0.08,0.5 0.2,0.93 l 5.25,8.03"
         vector-effect="non-scaling-stroke"
         id="path82" />
      <path
         stroke="#475e78"
         d="m 394.21,335.75 q -10.23,-0.64 -20.46,0.04 m -7.71,0.21 q -0.59,-1.19 -2.04,-0.79"
         vector-effect="non-scaling-stroke"
         id="path83" />
      <path
         stroke="#95a57e"
         d="m 364,335.21 c 0.06,-4.86 -4.71,-5.99 -7.75,-8.5"
         vector-effect="non-scaling-stroke"
         id="path84" />
      <path
         stroke="#788257"
         d="m 356.25,326.71 c 0.35,-4.71 -0.12,-11.27 -2.18,-15.41 a 0.9,0.9 0 0 1 0.99,-1.28 q 2.42,0.51 2.2,-1.95 -0.05,-0.52 0.03,-1.03 1,-6.31 -2.6,-11.51"
         vector-effect="non-scaling-stroke"
         id="path85" />
      <path
         stroke="#6b7649"
         d="m 354.69,295.53 1.58,-1.98 q 0.3,-0.38 0.12,-0.82 -0.28,-0.67 -1.03,-0.5 -0.5,0.11 -0.82,-0.29 c -1.07,-1.35 2.26,-5.88 3.48,-7.46 2.95,-3.82 4.52,-7.46 6.77,-11.48"
         vector-effect="non-scaling-stroke"
         id="path86" />
      <path
         stroke="#3d4629"
         d="m 385,201.29 0.82,0.5 q 0.36,0.22 0.47,0.64 l 0.73,2.81 q 0.12,0.45 -0.15,0.83 -0.44,0.63 -1.19,0.59 -3.31,-0.15 -5.03,-3.2"
         vector-effect="non-scaling-stroke"
         id="path87" />
      <path
         stroke="#738c56"
         d="m 331.3,317.73 q -10.47,-0.77 -20.55,1.73"
         vector-effect="non-scaling-stroke"
         id="path88" />
      <path
         stroke="#657840"
         d="m 347.67,216.27 q 3.22,2.57 6.58,3.27 m -1.5,1.42 -2,0.08"
         vector-effect="non-scaling-stroke"
         id="path89" />
      <path
         stroke="#b8cd9a"
         d="m 433.79,272.75 q -0.01,0.66 -0.34,0.98 -0.33,0.32 -0.74,0.14 l -4.54,-1.97 q -0.53,-0.22 -0.7,0.33 -1.16,3.8 -3.87,6.77 -0.36,0.4 -0.03,0.83 c 1.66,2.12 3.72,-0.19 5.14,-1.14 q 0.43,-0.29 0.76,0.11 c 1.58,1.9 2.95,2.5 5.63,2.7 3.08,0.22 6.44,3.64 8.51,3.19"
         vector-effect="non-scaling-stroke"
         id="path90" />
      <path
         stroke="#4f7584"
         d="m 454.25,334.71 h -1.5"
         vector-effect="non-scaling-stroke"
         id="path91" />
      <path
         stroke="#738c56"
         d="m 452.75,334.71 c -1.86,-1.59 -5.83,0.18 -7.51,0.16 q -2.78,-0.04 -7.97,-0.7 c -6.08,-0.77 -12.05,-0.39 -18.13,-0.57 -4.17,-0.12 -10.44,0.02 -15.73,-0.81 q -0.45,-0.07 -0.84,0.15 -1.79,1.03 -3.71,0.51 -1.22,-0.32 -0.05,-0.79 2.71,-1.08 4.29,-3.56 0.4,-0.62 0.89,-0.08 1.66,1.81 4.2,1.45 0.5,-0.07 0.66,-0.55 c 0.88,-2.76 -3.52,-4.3 -5.35,-5.46"
         vector-effect="non-scaling-stroke"
         id="path92" />
      <path
         stroke="#b8cd9a"
         d="m 403.5,324.46 0.79,-0.96"
         vector-effect="non-scaling-stroke"
         id="path93" />
      <path
         stroke="#738c56"
         d="m 404.29,323.5 q 0.45,0.06 0.57,0.49 0.12,0.45 0.58,0.51 c 2.2,0.29 3.09,-3.07 2.52,-4.51 q -0.19,-0.47 -0.62,-0.7 l -1.66,-0.88 q -0.95,-0.51 0.05,-0.89 l 3.35,-1.3 q 0.41,-0.16 0.53,-0.58 c 1.73,-5.82 -5.2,-3.79 -7.86,-3.93"
         vector-effect="non-scaling-stroke"
         id="path94" />
      <path
         stroke="#b5c5a0"
         d="m 401.75,311.71 q 1.81,-0.48 3.66,-0.92 c 2.76,-0.65 5.53,0.58 8.31,1 q 0.89,0.13 0.61,-0.73 l -0.53,-1.59 q -0.12,-0.37 -0.04,-0.74 l 1.64,-7.74 q 0.09,-0.44 0.46,-0.69 1.64,-1.08 0.66,-3.31 -0.21,-0.48 -0.23,-1.01 l -0.12,-4.88 q -0.02,-0.45 0.24,-0.83 1.98,-2.81 -1.38,-4.23"
         vector-effect="non-scaling-stroke"
         id="path95" />
      <path
         stroke="#8bad69"
         d="m 415.03,286.04 0.13,-0.46 q 0.13,-0.47 0.46,-0.84 l 8.36,-9.21 q 0.52,-0.58 0.06,-1.22 l -1.4,-1.95 q -0.28,-0.39 0.03,-0.76 1.45,-1.73 0.88,-3.94 -0.13,-0.53 -0.65,-0.35 c -2.19,0.79 -2.25,2.4 -3.98,3.64 -2.48,1.78 -3.37,3.89 -2.5,6.92 q 0.13,0.47 0,0.95 -0.67,2.49 -2.42,4.14"
         vector-effect="non-scaling-stroke"
         id="path96" />
      <path
         stroke="#b5c5a0"
         d="m 414,282.96 q 0.81,-1.51 0.4,-3.18 -0.12,-0.47 -0.6,-0.49 l -1.81,-0.12 q -0.88,-0.05 -0.56,-0.87 c 1.56,-4.06 -4.43,-3.91 -5.86,-7.47 q -1.65,-4.11 -3,-8.25 -0.13,-0.4 -0.55,-0.51 -0.68,-0.18 -0.77,-1.11"
         vector-effect="non-scaling-stroke"
         id="path97" />
      <path
         stroke="#a7b58d"
         d="M 401.25,260.96 401.29,260"
         vector-effect="non-scaling-stroke"
         id="path98" />
      <path
         stroke="#c4b573"
         d="m 445.46,188.5 c -2.11,1.59 -3.69,5.97 -6.91,3.98 q -0.49,-0.3 -0.26,-0.82 c 0.43,-0.94 0.74,-1.35 1.75,-1.96 q 2.06,-1.23 1.07,-3.53"
         vector-effect="non-scaling-stroke"
         id="path99" />
      <path
         stroke="#809964"
         d="m 356.25,326.71 q -1.05,0.06 -1.55,0.76 -0.33,0.45 0.09,0.82 1.08,0.99 1.46,2.42"
         vector-effect="non-scaling-stroke"
         id="path100" />
      <path
         stroke="#32525e"
         d="m 356.25,330.71 q -1.49,-0.13 -1.5,1.25"
         vector-effect="non-scaling-stroke"
         id="path101" />
      <path
         stroke="#9baa74"
         d="m 354.75,331.96 q -0.9,-1.22 -2.38,-0.52 a 0.7,0.69 69.6 0 0 -0.37,0.82 q 1.66,5.71 4.5,10.95"
         vector-effect="non-scaling-stroke"
         id="path102" />
      <path
         stroke="#32525e"
         d="m 356.5,343.21 q -1.16,0.54 -2.26,0.19 -0.49,-0.16 -0.69,-0.62 l -3.02,-6.87 q -0.21,-0.48 -0.71,-0.33 l -2.03,0.61 q -0.58,0.17 -0.46,0.77 0.48,2.36 0.97,4.69 c 0.62,2.94 2.57,5.86 1.95,9.81 m -5,0.08 0.56,-0.36 q 0.38,-0.24 0.25,-0.67 -1.3,-4.03 -5.58,-3.72 -0.55,0.04 -1.01,-0.25 -1.96,-1.22 -2.16,-2.87 -1.01,-8.37 -8.45,-8 c -5.74,0.28 -11.33,-0.45 -17.11,0.04"
         vector-effect="non-scaling-stroke"
         id="path103" />
      <path
         stroke="#809964"
         d="m 308.79,322.5 1.83,0.72 q 0.49,0.19 0.93,-0.09 c 3.36,-2.06 8.64,-1.53 12.5,-1.6 q 0.49,-0.01 0.92,0.21 c 2.87,1.45 5.66,-0.91 8.28,-2.78"
         vector-effect="non-scaling-stroke"
         id="path104" />
      <path
         stroke="#b1bb9e"
         d="m 333.25,318.96 q 6.15,1.46 12.03,3.68 c 4.86,1.84 3.55,-4.36 3.4,-7.03 -0.24,-4.22 -2.04,-8.43 -3.14,-12.61"
         vector-effect="non-scaling-stroke"
         id="path105" />
      <path
         stroke="#bfbea2"
         d="m 401.25,260.96 q -0.58,-1.2 -1.6,-2.03 -0.38,-0.31 -0.71,0.05 -2.99,3.29 -3.16,7.82 -0.02,0.49 -0.3,0.88 c -2.75,3.86 -4.65,7.74 -4.99,12.59 -0.31,4.43 -2.77,7.07 -4.05,11.16 -1.13,3.59 -3.71,7.8 -3.79,12.18 -0.1,5.57 0.09,8.18 3.54,12.38 q 0.32,0.38 0.8,0.27 l 3.01,-0.72"
         vector-effect="non-scaling-stroke"
         id="path106" />
      <path
         stroke="#7c8658"
         d="m 390,315.54 q -2.44,1.18 -2.84,3.78 -0.08,0.53 0.25,0.95 l 2.46,3.2 q 0.31,0.39 0.13,0.87 l -0.33,0.88"
         vector-effect="non-scaling-stroke"
         id="path107" />
      <path
         stroke="#8d9e66"
         d="m 404.29,323.5 c 0.56,-3.04 -5.96,-0.65 -7.39,0.02 q -0.65,0.31 -0.36,0.97 l 0.3,0.7 q 0.2,0.48 0.72,0.47 3.08,-0.04 5.94,-1.2"
         vector-effect="non-scaling-stroke"
         id="path108" />
      <path
         stroke="#254650"
         d="m 452.75,334.71 -4.37,1.23 q -0.52,0.15 -0.59,0.68 l -0.04,0.29 q -0.07,0.55 -0.62,0.57 c -6.44,0.29 -12.99,-0.74 -19.06,-0.28 -4.15,0.31 -8.61,1.21 -12.77,0.57 q -0.49,-0.08 -0.91,0.19 -1.49,0.98 -2.85,-0.21"
         vector-effect="non-scaling-stroke"
         id="path109" />
      <path
         stroke="#4f7584"
         d="m 364,335.21 q -1.42,0.56 -2.83,0.22 -0.49,-0.12 -0.75,-0.55 -1.54,-2.61 -4.17,-4.17"
         vector-effect="non-scaling-stroke"
         id="path110" />
      <path
         stroke="#6a8694"
         d="m 356.5,343.21 2.14,-0.78 a 1.45,1.45 0 0 0 0.78,-2.07 l -4.67,-8.4"
         vector-effect="non-scaling-stroke"
         id="path111" />
      <path
         stroke="#a3b77e"
         d="m 414,282.96 q -1.35,1.8 -1.54,3.99 -0.06,0.64 0.58,0.57 1.17,-0.12 1.99,-1.48"
         vector-effect="non-scaling-stroke"
         id="path112" />
      <path
         stroke="#8b966b"
         d="m 401.75,311.71 c -2.76,0.11 -8.8,-1.53 -9.25,2.31 q -0.07,0.54 -0.61,0.64 -1.14,0.22 -1.89,0.88"
         vector-effect="non-scaling-stroke"
         id="path113" />
      <path
         stroke="#8097bf"
         d="m 265.22,379.56 c 1.3,7.03 -4.52,9.14 -10.21,9.17 q -10.26,0.07 -20.47,0 c -9.02,-0.06 -15.66,-1.35 -15.57,-11.72 0.07,-8.56 -3.41,-25.16 10.28,-25.47 q 9.02,-0.21 29.05,0.09 6.74,0.1 7.13,6.62 a 0.7,0.69 -1.7 0 0 0.7,0.65 l 18.95,-0.03 q 0.35,0 0.36,-0.34 0.47,-8.64 -0.39,-11.07 c -3.8,-10.64 -14.63,-12.63 -24.8,-12.68 q -16.3,-0.08 -32.61,0 c -13.33,0.06 -28.21,3.06 -29.62,19.3 q -1.26,14.46 -0.14,28.94 c 1.32,16.99 9.84,21.09 26.15,21.53 q 22.26,0.61 44.53,-0.24 c 9.03,-0.35 16.13,-3.94 17.12,-13.64 q 1.01,-9.81 0.44,-25.02 -0.02,-0.34 -0.36,-0.34 l -45.69,-0.19 q -0.57,-0.01 -0.57,0.56 v 12.83 q 0,0.58 0.57,0.58 l 24.44,-0.13 q 0.6,0 0.71,0.6 m 228.3,1.17 c 0.09,19.76 10.63,23.9 28.23,23.98 q 19.22,0.09 38.43,-0.21 c 17.54,-0.27 26.07,-5.6 26.5,-24 0.23,-9.54 1.52,-25.84 -2.29,-33.72 -4.38,-9.05 -15.78,-12.03 -25.14,-12.04 q -18.15,-0.03 -36.3,0.03 c -14.18,0.05 -29.3,3.95 -29.41,21.24 q -0.08,12.35 -0.02,24.72"
         vector-effect="non-scaling-stroke"
         id="path114" />
      <path
         stroke="#a9a363"
         d="m 383.6,167.45 q -0.74,0.43 -0.26,1.13 l 1.58,2.34 q 0.58,0.85 0.91,-0.12 c 0.44,-1.31 0.57,-4.99 -2.23,-3.35"
         vector-effect="non-scaling-stroke"
         id="path115" />
      <path
         stroke="#6e8b42"
         d="m 418.06,168.37 -0.09,-2.25 a 1.2,1.19 -4.1 0 0 -1.31,-1.13 q -2.57,0.24 -4.32,2.06 a 1.52,1.52 0 0 0 0.51,2.46 l 5.6,2.32 a 0.72,0.71 21 0 0 0.95,-0.42 q 0.59,-1.63 -0.78,-2.23 -0.54,-0.23 -0.56,-0.81"
         vector-effect="non-scaling-stroke"
         id="path116" />
      <path
         stroke="#8bad69"
         d="m 408.74,181.99 q -0.03,1.44 0.6,2.68 0.25,0.49 0.76,0.73 1.65,0.75 3.39,0.33 0.62,-0.15 0.9,0.43 1.22,2.52 3.99,1.45 0.64,-0.25 0.31,-0.85 c -0.66,-1.19 -1.63,-4.74 -3.59,-4.54 q -0.52,0.05 -1,-0.18 l -3.99,-1.87 q -0.6,-0.28 -1.1,0.15 -0.33,0.28 -0.26,0.69 0.01,0.05 -0.01,0.98"
         vector-effect="non-scaling-stroke"
         id="path117" />
      <path
         stroke="#8b8b8a"
         d="m 441.991,170.542 a 4.56,3.53 36.8 0 0 -1.536,-5.559 4.56,3.53 36.8 0 0 -5.766,0.095 4.56,3.53 36.8 0 0 1.536,5.559 4.56,3.53 36.8 0 0 5.766,-0.095 m -90.243,5.386 a 3.85,3.44 50.9 0 0 0.242,-5.157 3.85,3.44 50.9 0 0 -5.098,-0.819 3.85,3.44 50.9 0 0 -0.242,5.157 3.85,3.44 50.9 0 0 5.098,0.819"
         vector-effect="non-scaling-stroke"
         id="path118" />
      <path
         stroke="#8bad69"
         d="m 415.18,205.22 q 1.57,-2.3 0.58,-4.95 -0.32,-0.84 -0.95,-0.2 l -0.54,0.54 q -0.33,0.32 -0.28,0.78 l 0.33,3.61 a 0.47,0.47 0 0 0 0.86,0.22"
         vector-effect="non-scaling-stroke"
         id="path119" />
      <path
         stroke="#809964"
         d="m 419.54,312.5 -0.19,1.8 q -0.06,0.56 0.44,0.83 2.15,1.17 3.67,-0.47 0.35,-0.38 0.46,-0.88 0.29,-1.25 1.04,-2.28"
         vector-effect="non-scaling-stroke"
         id="path120" />
      <path
         stroke="#ceddc5"
         d="m 424.96,311.5 c 0.08,3.28 -0.98,6.29 3.23,7.34 q 4.05,1.01 6.92,-1.2"
         vector-effect="non-scaling-stroke"
         id="path121" />
      <path
         stroke="#738c56"
         d="m 435.11,317.64 q 4.42,1.32 9.39,0.57"
         vector-effect="non-scaling-stroke"
         id="path122" />
      <path
         stroke="#809964"
         d="m 444.5,318.21 q 2.62,0.58 5.05,-0.45 0.46,-0.2 0.32,-0.68 l -0.16,-0.6"
         vector-effect="non-scaling-stroke"
         id="path123" />
      <path
         stroke="#95a57e"
         d="m 449.71,316.48 q -6.66,-5.01 -8.48,-11.71 -0.8,-2.92 -1.33,-4.02 -0.24,-0.49 -0.3,-1.03 -0.38,-3.43 -2.37,-6.32 -0.31,-0.45 -0.15,-0.97 c 1.45,-4.8 -2.03,-13.03 -8.03,-7.96 -3.95,3.34 -6.12,7.7 -10.12,11.43 q -0.39,0.36 -0.11,0.8 l 0.87,1.37 q 0.36,0.56 -0.11,1.03 l -2.39,2.39 q -0.38,0.38 -0.34,0.92 0.1,1.39 1.25,2.18 0.38,0.26 0.44,0.71 l 1,7.2"
         vector-effect="non-scaling-stroke"
         id="path124" />
      <path
         stroke="#788257"
         d="m 449.71,316.48 -4.62,-2.2 q -0.43,-0.2 -0.69,-0.6 c -2.34,-3.54 -4.05,-5.26 -4.4,-10.32 q -0.03,-0.51 -0.39,-0.87 c -2.17,-2.17 -2.66,-6.19 -3.44,-8.98 -0.83,-2.97 0.04,-5.61 -1.7,-8.82 q -0.36,-0.66 -0.89,-0.14 l -3.72,3.61 q -0.31,0.3 -0.73,0.43 c -3.17,1.02 -7.76,3.36 -4.95,6.8 q 0.3,0.36 0.32,0.84 0.13,2.46 -1.88,3.63 -0.47,0.27 -0.58,0.8 l -2.5,11.84"
         vector-effect="non-scaling-stroke"
         id="path125" />
      <path
         stroke="#566a2f"
         d="m 444.5,318.21 q 0.69,-1.15 0.11,-2.39 -0.22,-0.46 -0.68,-0.69 -1.03,-0.5 -1.21,-1.7 -0.02,-0.18 -0.2,-0.18 h -0.35 q -0.35,0 -0.47,-0.33 -0.47,-1.35 -1.57,-2.17 -0.47,-0.35 -0.64,-0.91 -0.68,-2.17 -2.7,-3.21 -0.55,-0.28 -0.79,-0.86 l -1.94,-4.84 q -0.15,-0.35 0.06,-0.67 1.05,-1.69 -0.26,-2.84 -0.42,-0.37 -0.54,-0.91 l -0.62,-2.92 q -0.1,-0.49 0.22,-0.86 1.16,-1.34 0.16,-2.57 -0.33,-0.41 -0.33,-0.93 v -1.72 a 0.58,0.57 67.6 0 0 -0.98,-0.41 q -2.39,2.39 -4.16,5.17 c -1.28,2.01 -1.03,4.32 -2.35,6.37 a 1.56,1.56 0 0 0 0.62,2.25 q 1.72,0.84 1.62,2.57"
         vector-effect="non-scaling-stroke"
         id="path126" />
      <path
         stroke="#b1bb9e"
         d="m 427.5,303.46 q -2.09,3.74 -2.54,8.04"
         vector-effect="non-scaling-stroke"
         id="path127" />
      <path
         stroke="#a4ae90"
         d="m 435.11,317.64 q -4.16,-5.51 -5.67,-11.83 -0.25,-1.03 -1.94,-2.35"
         vector-effect="non-scaling-stroke"
         id="path128" />
      <path
         stroke="#809964"
         d="m 344.26,333.7 c 0.3,1.11 1.25,1.77 2.32,0.95 2.23,-1.72 -1.01,-3.55 -2.66,-2.25 q -0.23,0.19 -0.2,0.49 0.02,0.19 0.11,0.29 0.43,0.49 0.43,0.52"
         vector-effect="non-scaling-stroke"
         id="path129" />
      <path
         stroke="#32525e"
         d="m 342.29,342 q 2.57,0.53 2.71,-1.75 0.22,-3.48 -3.21,-4.75"
         vector-effect="non-scaling-stroke"
         id="path130" />
      <path
         stroke="#809964"
         d="m 341.79,335.5 q -0.52,-2.54 -4.22,-2.24 a 0.82,0.81 -13.4 0 0 -0.69,1.12 q 0.87,2.14 0.4,4.41 -0.1,0.5 0.18,0.92 l 3.38,5.08 q 0.32,0.46 0.88,0.46 c 2.01,0 0.99,-2.33 0.57,-3.25"
         vector-effect="non-scaling-stroke"
         id="path131" />
      <path
         stroke="#4f7584"
         d="m 341.79,335.5 -2.09,1.05 q -0.57,0.29 -0.24,0.84 l 2.83,4.61"
         vector-effect="non-scaling-stroke"
         id="path132" />
      <path
         stroke="#8097bf"
         d="m 564.996,362.286 a 9.52,9.52 0 0 0 -9.536,-9.503 l -31.12,0.054 a 9.52,9.52 0 0 0 -9.504,9.537 l 0.028,15.62 a 9.52,9.52 0 0 0 9.536,9.503 l 31.12,-0.054 a 9.52,9.52 0 0 0 9.504,-9.537 l -0.028,-15.62"
         vector-effect="non-scaling-stroke"
         id="path133" />
    </g>
    <path
       fill="#9dbb8a"
       d="m 310.58481,92.687433 q -3.13961,3.995892 -7.99177,2.983939 l 2.33527,-3.645596 a 0.73949803,0.73949803 0 0 0 -0.86925,-1.089777 q -6.27924,2.296335 -6.94089,9.029658 -1.05086,10.858953 -1.66063,21.769783 c -0.0648,1.08979 -0.64867,1.68657 -1.71253,1.14168 q -0.59678,-0.31136 -0.72651,-0.96005 c -1.08979,-5.29324 0.33731,-12.41578 0.24649,-18.00743 -0.0649,-4.761321 -0.57084,-7.693369 2.77636,-11.715204 a 1.6087327,1.6087327 0 0 0 -1.10275,-2.620675 q -5.05973,-0.4411 -8.80912,2.996915 -0.4411,0.402186 -1.01193,0.233527 -2.41311,-0.726526 -4.5797,0.272439 l -1.29737,0.64869 q -5.34514,-2.283367 -10.48271,0.817339 -0.66168,0.402175 -1.31034,0 -3.64558,-2.244445 -7.83608,-0.998975 -0.63572,0.181636 -1.23251,-0.07781 c -0.77841,-0.32434 -1.29736,-0.402175 -2.12767,-0.06489 -5.56571,2.296335 -8.64045,3.593695 -13.73909,2.166599 q -0.62274,-0.168659 -1.20655,0.103845 c -5.55272,2.607697 -12.35093,-0.09083 -18.65612,-0.220559 a 1.6476534,1.6476534 0 0 0 -1.15465,2.867179 c 5.87706,5.39704 12.02657,3.6456 18.52638,7.43391 q 1.5698,0.92113 2.77635,-0.45409 2.99691,-3.43802 6.33115,-0.49299 0.97302,1.15466 2.52985,1.79037 0.84328,0.33733 0.73949,1.23249 l -0.41514,3.46397 q -0.0908,0.76546 0.42812,1.33628 l 6.12358,6.82414 q 0.5319,0.58383 0.62273,1.36225 0.53191,4.0867 4.04776,6.29222 0.72654,0.46704 0.0519,0.99896 c -5.7992,4.59268 -10.43081,0.83032 -16.52841,2.2185 q -6.48685,1.46601 -9.75619,1.81631 -0.67463,0.0778 -0.76546,-0.59679 -0.2854,-2.5039 -1.85521,-4.4759 a 2.6206774,2.6206774 0 0 1 0.60975,-3.81427 l 3.69748,-2.42605 q 0.71356,-0.48004 0.31137,-1.24549 l -0.25946,-0.48002 q -0.25948,-0.493 -0.81733,-0.54488 l -3.99591,-0.38922 q -0.62272,-0.0519 -1.16762,0.23353 -1.53088,0.81733 -2.80229,-0.31136 -6.12358,-5.46193 -11.30006,-13.85588 c -1.51793,-3.17855 -10.4957,-13.15529 -14.69917,-9.782145 a 0.99897102,0.99897102 0 0 0 0.32434,1.725501 q 8.69235,2.776356 10.82003,11.222204 l -0.0519,5.42299 q 0,0.76546 -0.75246,0.90815 l -0.81734,0.1557 q -0.64869,0.12973 -0.80437,-0.51896 c -1.1417,-4.83917 -0.31139,-9.73023 -6.79822,-10.30108 q -4.91701,-0.42813 -8.6664,1.0379 -8.38096,1.66063 -12.37686,9.13346 h -1.19357 c 2.86721,-13.466659 12.44176,-21.912506 26.19382,-21.653034 q 9.43186,0.16866 18.7599,-1.102765 c 5.55273,-0.752471 10.17134,0.42813 15.39973,0.70058 8.89992,0.467053 16.52843,-2.452018 25.46727,-2.620677 4.22942,-0.07781 8.74424,0.998966 13.07744,1.686569 5.16352,0.804371 8.35502,-1.79036 13.25907,-2.166601 q 8.2253,-0.622735 14.81591,4.60565 z m -65.59478,14.322917 q -0.96003,0.55786 -0.33731,1.46601 l 2.04984,3.03585 q 0.75247,1.10275 1.18059,-0.15569 c 0.57085,-1.69955 0.73951,-6.47385 -2.89312,-4.34617 z"
       id="path135"
       style="stroke-width:1.29735" />
    <path
       fill="#789f47"
       d="m 302.59304,95.671372 c -3.32125,6.811168 -2.19254,12.649308 -2.67257,19.706988 q -0.35029,5.30622 0.93411,10.50864 0.98599,4.04779 -2.73745,4.69647 -1.10275,0.1946 -0.18163,0.83032 c 1.38819,0.96004 2.24445,1.84225 4.04778,2.04982 q 2.93205,0.3503 5.82518,1.25845 l 4.83916,1.59576 q -0.62272,0.66166 -0.85627,1.77739 -0.15566,0.70058 0.48004,1.0379 5.20244,2.76339 9.58752,6.65547 -2.01092,2.24445 -4.69645,2.68555 -0.71356,0.11676 -0.86926,-0.59679 -1.27139,-5.85111 -7.33008,-5.91598 -0.63572,0 -0.85627,0.60977 -1.38818,3.84019 -5.85111,3.93101 -1.71253,0.0389 -1.88119,-1.56981 -0.0778,-0.6876 -0.75248,-0.8433 -2.452,-0.58381 -3.58072,1.49197 -0.31138,0.55788 -0.94707,0.50599 c -6.66846,-0.6487 -10.87193,-7.23931 -17.242,-2.47798 q -0.5319,0.40218 -1.20653,0.38922 l -8.69234,-0.12974 q -0.0908,-0.0129 -0.15569,-0.0778 l -0.32435,-0.31137 q -0.45409,-0.46705 -1.10276,-0.54489 c -5.34514,-0.72652 -12.26009,-1.6736 -17.13819,1.1806 q -5.61759,3.29531 -10.69028,7.40795 -0.493,0.40218 -0.41516,1.05087 0.12973,0.96006 0.89518,1.58278 -2.58175,1.38819 -2.97096,4.22942 -0.0908,0.64867 0.35028,1.14168 l 3.86615,4.32021 q 0.49301,0.54491 0.37624,1.27142 c -0.80437,4.73539 -3.42504,3.21747 -6.62953,2.68556 q -3.77533,-0.6357 -7.62851,-1.03789 -3.30829,-0.33732 0.026,-0.33732 h 0.70058 q 0.57084,0 0.0517,-0.24651 -0.41515,-0.1946 -0.79138,-0.12974 1.60874,-1.18059 1.60874,-3.06176 -0.0129,-0.72653 -0.67463,-1.01196 -6.26628,-2.68556 -12.94771,-2.24443 c -3.46397,0.22055 -5.63056,2.69851 -8.03069,4.92998 q -0.51894,0.48002 -1.19358,0.24649 l -11.50762,-4.00885 q -0.53192,-0.18162 -0.93409,-0.59679 l -6.81117,-7.17442 q 5.59163,0.10385 9.97673,3.69749 0.45407,0.37623 1.03788,0.28541 6.18843,-0.94707 11.13141,2.69852 0.54488,0.40219 1.14168,0.0648 1.68657,-0.96005 3.36017,-1.93306 c 3.03584,-1.75144 6.60358,-1.60875 9.95079,-3.00989 q 0.57083,-0.24649 0.75246,-0.84329 c 0.81735,-2.59473 6.38304,-1.80333 8.89993,-3.02285 3.67154,-1.7774 7.40796,-2.33526 10.59947,-4.77432 q 2.28336,-1.73847 4.61861,-3.48989 0.58383,-0.42815 0.50599,-1.14169 c -0.42815,-3.72344 -5.87707,-5.39705 -9.44483,-6.70738 q -0.60976,-0.22056 -1.21952,0.026 l -4.35915,1.73846 q -1.3233,0.53194 -1.05085,-0.86923 l 0.98598,-4.99486 q 0.10385,-0.53192 -0.40217,-0.75246 -4.1386,-1.80336 -5.42299,-6.1106 -0.19461,-0.68759 -0.7395,-1.15465 -2.32229,-1.98497 -2.10172,-5.09864 0.0389,-0.63573 -0.36326,-1.12871 -4.37214,-5.2673 -5.11163,-12.37686 5.17648,8.39394 11.30005,13.85586 1.27142,1.1287 2.80231,0.31137 0.54488,-0.28543 1.16761,-0.23353 l 3.9959,0.3892 q 0.55786,0.0519 0.81734,0.5449 l 0.25947,0.48002 q 0.40219,0.76545 -0.31137,1.24549 l -3.69747,2.42606 a 2.6206774,2.6206774 0 0 0 -0.60978,3.81426 q 1.56982,1.97197 1.85523,4.4759 0.0908,0.67462 0.76545,0.59678 3.26936,-0.35029 9.75618,-1.81631 c 6.09763,-1.38818 10.72921,2.37419 16.52843,-2.21849 q 0.67464,-0.53192 -0.0519,-0.99897 -3.51586,-2.20552 -4.04776,-6.29221 -0.0908,-0.77843 -0.62275,-1.36224 l -6.12356,-6.82415 q -0.51895,-0.57083 -0.42813,-1.33629 l 0.41517,-3.46396 q 0.10373,-0.89518 -0.73951,-1.23249 -1.55684,-0.63572 -2.52986,-1.79037 3.93102,0.41516 5.81219,-2.43904 a 1.7254954,1.7384691 52.2 0 1 3.08773,0.38922 q 0.86924,2.59473 2.97096,4.30723 0.50599,0.41517 0.80438,-0.16864 1.07682,-2.1666 0.0519,-4.30725 -0.3503,-0.73951 0.46704,-0.76545 l 9.73024,-0.36326 q 0.64868,-0.0259 1.11573,-0.48004 l 4.72242,-4.605644 c 2.45202,0.97303 2.97096,3.866154 4.86512,5.591644 a 2.0238896,2.0238896 0 0 0 3.26935,-0.8303 l 1.6736,-4.761344 q 0.2465,-0.70057 -0.46705,-0.947065 l -6.6944,-2.348235 q 2.1666,-0.998975 4.57969,-0.27245 0.57085,0.168659 1.01194,-0.233526 3.7494,-3.438016 8.80912,-2.996905 a 1.6087327,1.6087327 0 0 1 1.10275,2.620674 c -3.3472,4.021836 -2.84122,6.953884 -2.77635,11.715201 0.0908,5.59165 -1.33628,12.71418 -0.2465,18.00744 q 0.12973,0.64868 0.72653,0.96004 c 1.06383,0.54488 1.64765,-0.0519 1.71253,-1.14169 q 0.60975,-10.91084 1.66061,-21.769779 0.66167,-6.733324 6.94091,-9.029659 a 0.73949803,0.73949803 0 0 1 0.86923,1.089788 z m -12.89579,12.532548 -0.11678,-2.91907 a 1.5438644,1.5568379 85.9 0 0 -1.69953,-1.46601 q -3.33425,0.31136 -5.60462,2.67256 a 1.9719948,1.9719948 0 0 0 0.66164,3.19152 l 7.26526,3.00988 a 0.93410282,0.92112908 21 0 0 1.23249,-0.54489 q 0.76544,-2.11471 -1.01195,-2.89313 -0.70057,-0.29839 -0.72651,-1.05086 z m -12.09145,17.67011 q -0.0389,1.86821 0.77843,3.47693 0.32432,0.63573 0.98598,0.94709 2.14066,0.97301 4.39806,0.42814 0.80438,-0.19462 1.16763,0.55785 1.5828,3.26937 5.17648,1.88118 0.83033,-0.32434 0.4022,-1.10276 c -0.85626,-1.54386 -2.1147,-6.14951 -4.65755,-5.89003 q -0.67463,0.0648 -1.29737,-0.23354 l -5.17647,-2.42607 q -0.77843,-0.36326 -1.42712,0.19462 -0.42812,0.36326 -0.3373,0.89518 0.0129,0.0648 -0.0129,1.27141 z"
       id="path136"
       style="stroke-width:1.29735" />
    <path
       fill="#b58b3b"
       d="m 279.24048,93.725332 -1.34927,2.64662 -4.7224,4.605648 q -0.46706,0.45408 -1.11573,0.48002 l -9.73024,0.36326 q -0.81735,0.0259 -0.46706,0.76545 1.02492,2.14064 -0.0518,4.30726 -0.2984,0.58381 -0.80436,0.16865 -2.10174,-1.71253 -2.97097,-4.30725 a 1.7254954,1.7384691 52.2 0 0 -3.08772,-0.38921 q -1.88118,2.8542 -5.81221,2.43904 -3.33423,-2.94501 -6.33114,0.493 -1.20654,1.37521 -2.77635,0.45408 c -6.49981,-3.7883 -12.64931,-2.03687 -18.52638,-7.433898 a 1.6476534,1.6476534 0 0 1 1.15465,-2.867179 c 6.30519,0.129735 13.1034,2.828256 18.65612,0.220549 q 0.58381,-0.27244 1.20654,-0.103737 c 5.09865,1.427096 8.17339,0.129725 13.73909,-2.166599 0.83032,-0.337318 1.34927,-0.259483 2.12769,0.06489 q 0.59678,0.259471 1.23249,0.07781 4.1905,-1.245469 7.83608,0.998975 0.64869,0.402187 1.31035,0 5.13756,-3.100706 10.48271,-0.817338 z"
       id="path137"
       style="stroke-width:1.29735" />
    <path
       fill="#d2deaa"
       d="m 310.58481,92.687433 5.90301,6.279249 -0.92113,0.05187 q -3.63263,-1.478996 -6.48681,1.297368 -2.97097,0.92113 -3.51587,3.8402 c -3.81425,9.45778 -4.46293,22.19791 2.24445,30.56591 q -2.89313,-0.90815 -5.82518,-1.25844 c -1.80333,-0.20758 -2.65959,-1.08979 -4.04778,-2.04983 q -0.92112,-0.63571 0.18163,-0.83032 3.72344,-0.64868 2.73745,-4.69646 -1.2844,-5.20244 -0.93411,-10.50866 c 0.48003,-7.05766 -0.64868,-12.8958 2.67257,-19.706968 q 4.85216,1.011943 7.99177,-2.983938 z"
       id="path138"
       style="stroke-width:1.29735" />
    <path
       fill="#63763d"
       d="m 280.53785,93.076642 6.6944,2.348235 q 0.71354,0.246495 0.46704,0.947075 l -1.6736,4.761328 a 2.0238896,2.0238896 0 0 1 -3.26936,0.83032 c -1.89415,-1.72549 -2.41309,-4.618628 -4.86512,-5.591648 l 1.34927,-2.64662 z"
       id="path139"
       style="stroke-width:1.29735" />
    <path
       fill="#485d21"
       d="m 218.62759,104.23399 q 0.7395,7.10955 5.11162,12.37687 0.40216,0.49299 0.36326,1.1287 -0.22057,3.11367 2.10173,5.09863 0.54489,0.46706 0.73949,1.15466 1.28439,4.30725 5.42299,6.11058 0.50598,0.22057 0.40218,0.75248 l -0.98599,4.99485 q -0.27245,1.40115 1.05086,0.86925 l 4.35915,-1.73848 q 0.60975,-0.2465 1.21951,-0.026 c 3.56776,1.31035 9.0167,2.98393 9.44484,6.70738 q 0.0778,0.71356 -0.50598,1.14169 -2.33527,1.75144 -4.61862,3.4899 c -3.19152,2.43906 -6.92792,2.99693 -10.59947,4.77432 -2.5169,1.21951 -8.08259,0.42812 -8.89993,3.02285 q -0.18163,0.59679 -0.75246,0.84328 c -3.34722,1.40116 -6.91496,1.25846 -9.95081,3.00989 q -1.67358,0.97301 -3.36017,1.93309 -0.59678,0.33731 -1.14169,-0.0649 -4.94296,-3.64559 -11.13138,-2.69851 -0.5838,0.0908 -1.03789,-0.28543 -4.38509,-3.59369 -9.97674,-3.69748 l -2.81527,-5.34509 q -0.2984,-0.55788 0.25947,-0.88221 l 1.03788,-0.60977 q 0.68761,-0.41516 0.97303,0.33731 c 2.9061,7.88797 30.22861,-3.68452 30.82539,-14.71212 0.45408,-8.49773 1.7774,-15.65918 -1.08979,-24.5202 q -2.12768,-8.445829 -10.82003,-11.222196 a 0.99897102,0.99897102 0 0 1 -0.32434,-1.725491 c 4.20347,-3.373156 13.18123,6.603587 14.69916,9.782127 z"
       id="path140"
       style="stroke-width:1.29735" />
    <path
       fill="#171615"
       d="m 315.56669,99.018572 2.91908,1.842258 q 3.59371,2.88016 5.89002,6.86307 -0.18162,2.82825 1.32331,5.43596 0.33732,0.5838 -0.11675,1.07682 l -1.95903,2.19254 q -0.44109,0.48001 -0.41514,1.1287 0.35028,7.57662 -3.60668,13.7391 l -6.95388,5.0208 -4.83916,-1.59576 c -6.70738,-8.36801 -6.0587,-21.10811 -2.24445,-30.56592 q 2.29634,-1.41413 3.51587,-3.8402 2.85418,-2.776364 6.48681,-1.297368 z m 5.17779,12.003228 a 5.9159844,4.5796985 36.8 0 0 -1.99276,-7.21205 5.9159844,4.5796985 36.8 0 0 -7.4806,0.12324 5.9159844,4.5796985 36.8 0 0 1.99275,7.21205 5.9159844,4.5796985 36.8 0 0 7.48061,-0.12324 z"
       id="path141"
       style="stroke-width:1.29735" />
    <path
       fill="#9dbb8a"
       d="m 315.56669,99.018572 0.92113,-0.05187 1.99795,1.894138 z"
       id="path142"
       style="stroke-width:1.29735" />
    <path
       fill="#8d8e71"
       d="m 309.07988,100.31594 q -1.21953,2.42607 -3.51587,3.8402 0.5449,-2.91907 3.51587,-3.8402 z m -94.00708,7.08361 c 2.86719,8.86102 1.54387,16.02246 1.08979,24.5202 -0.59678,11.0276 -27.91929,22.6001 -30.82539,14.71212 q -0.28542,-0.75247 -0.97303,-0.33731 l -1.03788,0.60974 q -0.55787,0.32435 -0.25947,0.88223 l 2.81527,5.34514 6.81117,7.17443 q 0.40218,0.41516 0.9341,0.59678 l 11.50763,4.00885 q 0.67464,0.23354 1.19357,-0.24649 c 2.40011,-2.23146 4.56672,-4.70942 8.03068,-4.92998 q 6.68143,-0.44112 12.94772,2.24444 0.66165,0.28541 0.67464,1.01194 0,1.88118 -1.60875,3.06178 -4.87809,1.55685 -9.39292,-0.31137 c -4.47591,-1.85522 -5.85113,0.93413 -9.39293,1.56981 q -8.21232,1.479 -15.49052,-2.65958 c -1.79037,-1.02492 -1.86822,-2.41311 -4.09967,-3.29531 q -0.64869,-0.24649 -0.99899,-0.85628 c -1.20653,-2.12766 -4.17751,-7.90094 -6.95387,-5.09863 0.41516,-12.71418 -2.01093,-30.6697 3.56776,-42.16435 h 1.19357 c -1.25845,5.09863 -1.56982,12.32495 2.38715,16.5803 q 0.44111,0.48004 0.59678,1.10277 l 0.99898,3.8921 q 0.22056,0.84329 -0.60976,1.11573 l -2.46499,0.81733 a 1.258444,1.2714177 64.9 0 0 -0.68761,1.8812 l 3.07475,4.89106 q 0.40219,0.62273 1.10278,0.84329 c 8.64043,2.72446 17.87769,-1.38818 22.24979,-9.06859 1.51791,-2.6596 0.99897,-5.4619 0.92114,-8.43286 q 0.70058,-4.34618 -0.58382,-8.39395 -0.20758,-0.63571 -0.86924,-0.66167 -0.55785,-0.0129 -1.03789,-0.35028 -2.98394,-9.84699 -12.70121,-13.34989 3.7494,-1.46602 8.66641,-1.0379 c 6.48683,0.57085 5.65651,5.46191 6.79819,10.30107 q 0.15569,0.64869 0.80438,0.51896 l 0.81733,-0.15569 q 0.75246,-0.14269 0.75246,-0.90815 z"
       id="path143"
       style="stroke-width:1.29735" />
    <ellipse
       fill="#ffffff"
       rx="5.9159846"
       ry="4.5796986"
       transform="rotate(36.8)"
       id="ellipse143"
       cx="317.4187"
       cy="-103.23531"
       style="stroke-width:1.29735" />
    <path
       fill="#63763d"
       d="m 290.42376,109.25478 q 1.77739,0.77842 1.01195,2.89313 a 0.93410282,0.92112908 21 0 1 -1.23249,0.54489 l -7.26526,-3.00988 a 1.9719948,1.9719948 0 0 1 -0.66164,-3.19152 q 2.27037,-2.3612 5.60462,-2.67257 a 1.5438644,1.5568379 85.9 0 1 1.69953,1.46602 l 0.11678,2.91907 q 0.026,0.75247 0.72651,1.05086 z"
       id="path144"
       style="stroke-width:1.29735" />
    <path
       fill="#171615"
       d="m 197.18213,104.10425 q 9.71727,3.5029 12.70121,13.34989 l -0.64868,1.86819 q -0.2465,0.6876 0.31136,1.16765 2.84123,2.465 2.82827,6.37006 c 0.0778,2.97096 0.59677,5.77326 -0.92114,8.43286 -4.3721,7.68041 -13.60936,11.79305 -22.24979,9.06859 q -0.70059,-0.22056 -1.10278,-0.84329 l -3.07475,-4.89106 a 1.258444,1.2714177 64.9 0 1 0.68761,-1.8812 l 2.46499,-0.81733 q 0.83032,-0.27244 0.60976,-1.11573 l -0.99898,-3.8921 q -0.15567,-0.62273 -0.59678,-1.10277 c -3.95697,-4.25535 -3.6456,-11.48167 -2.38715,-16.5803 q 3.99588,-7.47283 12.37685,-9.13346 z m 6.48424,13.90515 a 4.9948552,4.4629356 50.9 0 0 0.31397,-6.6905 4.9948552,4.4629356 50.9 0 0 -6.61398,-1.06254 4.9948552,4.4629356 50.9 0 0 -0.31395,6.69051 4.9948552,4.4629356 50.9 0 0 6.61396,1.06253 z"
       id="path145"
       style="stroke-width:1.29735" />
    <path
       fill="#b58b3b"
       d="m 244.99003,107.01035 c 3.63263,-2.12768 3.46397,2.64662 2.89312,4.34617 q -0.42812,1.25844 -1.18059,0.15569 l -2.04984,-3.03585 q -0.62272,-0.90815 0.33731,-1.46601 z m 79.38576,0.71355 c 5.94194,8.17339 4.03482,17.64416 0.86926,26.59597 -2.73745,2.06282 -4.7873,7.74527 -8.96481,5.16352 q -0.6357,-0.38921 -0.33732,-1.06384 c 0.55788,-1.21953 0.96007,-1.75143 2.2704,-2.54283 q 2.67257,-1.59577 1.38818,-4.5797 3.95696,-6.16248 3.60668,-13.7391 -0.0261,-0.64869 0.41514,-1.1287 l 1.95903,-2.19254 q 0.45407,-0.49302 0.11675,-1.07682 -1.50493,-2.60771 -1.32331,-5.43596 z"
       id="path146"
       style="stroke-width:1.29735" />
    <ellipse
       fill="#ffffff"
       rx="4.9948549"
       ry="4.4629354"
       transform="rotate(50.9)"
       id="ellipse146"
       cx="215.033"
       cy="-83.629066"
       style="stroke-width:1.29735" />
    <path
       fill="#525038"
       d="m 209.88334,117.45414 q 0.48004,0.3373 1.03789,0.35028 0.66166,0.026 0.86924,0.66167 1.2844,4.04777 0.58382,8.39395 0.013,-3.90506 -2.82827,-6.37006 -0.55786,-0.48005 -0.31136,-1.16765 z"
       id="path147"
       style="stroke-width:1.29735" />
    <path
       fill="#9dbb8a"
       d="m 277.61877,124.60262 q -0.0908,-0.53192 0.3373,-0.89518 0.64869,-0.55788 1.42712,-0.19462 l 5.17647,2.42607 q 0.62274,0.29841 1.29737,0.23354 c 2.54285,-0.25948 3.80129,4.34617 4.65755,5.89003 q 0.42813,0.77842 -0.4022,1.10276 -3.59368,1.38819 -5.17648,-1.88118 -0.36325,-0.75247 -1.16763,-0.55785 -2.2574,0.54487 -4.39806,-0.42814 -0.66166,-0.31136 -0.98598,-0.94709 -0.81735,-1.60872 -0.77843,-3.47693 0.0261,-1.20654 0.0129,-1.27141 z"
       id="path148"
       style="stroke-width:1.29735" />
    <path
       fill="#d2deaa"
       d="m 319.6015,131.29702 q 1.28439,2.98393 -1.38818,4.5797 c -1.31033,0.7914 -1.71252,1.3233 -2.2704,2.54283 q -0.29838,0.67463 0.33732,1.06384 c 4.17751,2.58175 6.22736,-3.1007 8.96481,-5.16352 q 0.0648,2.49094 -0.86926,4.86512 -0.24648,0.60978 0.10374,1.18061 c 1.40117,2.24443 -0.0129,18.81179 -0.16865,21.22488 -0.986,14.91971 -20.95244,26.40139 -33.51093,29.8394 -5.79923,1.59575 -3.6975,4.59269 -4.07374,8.70533 q -0.48002,5.18945 -0.40216,10.40485 l -1.40118,-15.98352 c 5.63058,-6.43494 13.7391,-4.41104 20.31675,-10.5865 2.52986,-2.37418 4.56673,-3.55478 7.40795,-4.99485 a 0.99897102,0.99897102 0 0 0 -0.12975,-1.84226 c -3.60666,-1.23251 -5.13756,1.33628 -7.45984,2.21849 -4.35914,1.64765 -11.01463,4.1386 -16.20408,3.42505 q -4.07373,-0.5449 -4.21645,-0.5449 c -4.69645,-0.0908 -8.62747,0.62273 -12.57145,-2.80231 q -0.60977,-0.51894 0.0261,-1.01195 l 4.22943,-3.17854 q 6.62953,0.0908 13.03851,-1.50494 c 4.6705,-1.15465 9.41887,-0.63571 14.14126,-3.43802 q 0.49301,-0.2984 1.06385,-0.2984 h 5.99382 q 0.2465,0 0.37623,-0.22056 l 0.25948,-0.41515 q 0.29841,-0.49299 0.81734,-0.73949 4.29429,-1.97198 8.00475,-4.90405 1.25843,-0.99896 -0.29839,-0.59678 c -2.73744,0.70058 -5.29325,2.15362 -7.68041,2.72447 -8.80909,2.14065 -17.55334,4.55376 -26.50515,4.95594 q -11.1314,0.49298 -22.30171,-0.10384 c -2.77637,-0.14271 -4.5797,-1.29738 -7.08361,-2.1277 a 1.4141279,1.4141279 0 0 1 -0.49301,-2.41309 l 4.12561,-3.65857 q 0.44111,-0.3892 0.57085,-0.97302 0.85626,-4.1386 -3.26936,-4.51484 -0.72651,-0.0649 -1.11573,-0.6876 l -0.8822,-1.41412 q -0.33732,-0.5449 -0.90817,-0.81735 -2.76339,-1.32331 -4.77429,-3.60666 l -1.07682,-0.89519 q -0.49299,-0.40218 -0.41516,-1.02491 c 0.5449,-4.09968 8.39395,4.47591 12.62335,0.80436 q 0.54491,-0.46704 1.14169,-0.0778 4.41105,2.81528 8.87398,-0.32434 0.59678,-0.41516 1.31034,-0.33732 l 10.46974,0.99897 q 0.60975,0.0517 0.71354,0.66166 c 0.54489,3.46397 -1.54385,6.14951 -0.80436,8.69234 1.07682,3.77533 6.21436,1.972 8.25124,-0.0908 2.99692,-3.02288 4.86512,-4.72242 8.861,-2.72447 q 0.55788,0.28542 1.18061,0.28542 l 15.17916,0.20757 q 0.53194,0 0.80437,-0.44109 c 2.465,-4.00888 6.12357,-4.6835 5.34516,-10.43083 q -4.3851,-3.89208 -9.58755,-6.65548 -0.6357,-0.3373 -0.48001,-1.03789 0.23352,-1.11572 0.85625,-1.77739 z"
       id="path149"
       style="stroke-width:1.29735" />
    <path
       fill="#9dbb8a"
       d="m 321.85891,145.78858 c 0.77841,5.74732 -2.88014,6.42195 -5.34513,10.43082 q -0.27245,0.4411 -0.80438,0.4411 l -15.17916,-0.20758 q -0.62274,0 -1.1806,-0.28541 c -3.9959,-1.99795 -5.86409,-0.29839 -8.86102,2.72446 -2.03686,2.06281 -7.17441,3.86614 -8.25122,0.0908 -0.73951,-2.54282 1.34925,-5.22837 0.80435,-8.69234 q -0.10384,-0.60975 -0.71355,-0.66165 l -10.46973,-0.99897 q -0.71355,-0.0778 -1.31034,0.33731 -4.46294,3.13963 -8.87397,0.32435 -0.59679,-0.38921 -1.14169,0.0778 c -4.22941,3.67155 -12.07847,-4.90404 -12.62336,-0.80436 q -0.0778,0.62273 0.41516,1.02491 l 1.0768,0.89519 -2.59474,0.42814 q -3.28231,-0.53194 -5.64351,2.81526 l -2.14066,0.42814 q -0.76545,-0.62274 -0.89518,-1.58279 -0.0778,-0.64867 0.41516,-1.05087 5.07269,-4.11264 10.69028,-7.40794 c 4.8781,-2.85421 11.79305,-1.90713 17.13819,-1.18061 q 0.64867,0.0778 1.10276,0.54489 l 0.32435,0.31137 q 0.0648,0.0648 0.15569,0.0778 l 8.69234,0.12975 q 0.67463,0.0129 1.20653,-0.38922 c 6.37007,-4.76132 10.57354,1.82928 17.242,2.47797 q 0.63569,0.0519 0.94707,-0.50596 1.12872,-2.0758 3.58072,-1.49198 0.67464,0.15568 0.75248,0.84329 0.16866,1.60873 1.88119,1.56981 4.46293,-0.0908 5.85111,-3.93101 0.22055,-0.60978 0.85627,-0.60978 6.05869,0.0649 7.33008,5.91599 0.1557,0.71355 0.86926,0.5968 2.68553,-0.44111 4.69645,-2.68555 z m -35.89807,10.22323 q 2.03684,-2.98392 0.75246,-6.42195 -0.41516,-1.08978 -1.2325,-0.25948 l -0.70058,0.70058 q -0.42813,0.41516 -0.36325,1.01195 l 0.42812,4.68349 a 0.60976155,0.60976155 0 0 0 1.11575,0.28541 z"
       id="path150"
       style="stroke-width:1.29735" />
    <path
       fill="#789f47"
       d="m 285.96084,156.01181 a 0.60976155,0.60976155 0 0 1 -1.11575,-0.28541 l -0.42812,-4.68349 q -0.0648,-0.59679 0.36325,-1.01195 l 0.70058,-0.70058 q 0.81734,-0.8303 1.2325,0.25948 1.28438,3.43803 -0.75246,6.42195 z"
       id="path151"
       style="stroke-width:1.29735" />
    <path
       fill="#171615"
       d="m 246.80633,150.91318 1.06386,0.64868 q 0.46705,0.28541 0.60976,0.83032 l 0.94708,3.64558 q 0.15568,0.58382 -0.19461,1.07682 -0.57084,0.81734 -1.54386,0.76545 -4.29428,-0.19461 -6.52574,-4.15158 2.3612,-3.34721 5.64351,-2.81527 z"
       id="path152"
       style="stroke-width:1.29735" />
    <path
       fill="#63763d"
       d="m 249.40107,150.48505 q 2.01092,2.28336 4.77432,3.60667 0.57084,0.27245 0.90814,0.81734 l 0.88222,1.41412 q 0.38921,0.62276 1.11573,0.6876 4.12563,0.37625 3.26936,4.51484 -0.12973,0.58382 -0.57083,0.97303 l -4.12563,3.65857 a 1.4141279,1.4141279 0 0 0 0.493,2.41308 c 2.50391,0.83032 4.30725,1.98499 7.08361,2.1277 q 11.17032,0.59677 22.3017,0.10384 c 8.95184,-0.40218 17.69606,-2.81529 26.50518,-4.95594 2.38716,-0.57085 4.94296,-2.02389 7.68039,-2.72447 q 1.55684,-0.40218 0.29839,0.5968 -3.71047,2.93205 -8.00473,4.90404 -0.51896,0.24649 -0.81735,0.73949 l -0.25947,0.41515 q -0.12973,0.22055 -0.37623,0.22055 h -5.99382 q -0.57085,0 -1.06384,0.2984 c -4.72242,2.80232 -9.47078,2.28337 -14.14128,3.43802 q -6.40899,1.59577 -13.03853,1.50494 c -3.89208,-0.23352 -8.53667,4.22942 -12.38983,5.38407 a 1.1546548,1.1546548 0 0 0 0.22056,2.2574 q 7.7712,0.75247 14.60833,2.89314 c 8.8091,2.77635 -2.52987,10.46974 -6.22735,11.18328 q -0.66167,0.12974 -1.02494,0.70058 c -1.21951,1.90713 -8.08257,3.11368 -10.58648,4.41104 -10.0416,5.18946 -21.57519,2.46499 -31.81139,-1.01195 q -0.64868,-0.20757 -1.0898,0.2984 -2.33524,2.62067 -5.87706,2.38716 -0.84329,-0.0519 -1.05087,0.76544 -0.46706,1.84227 0.93411,4.17751 c 2.94502,4.87809 1.972,10.63839 3.87911,16.02246 1.60875,4.56673 -0.16864,9.13345 -0.76544,13.53153 q 0,0.0649 -0.0648,0.0908 -0.19461,0.0519 -0.36326,0.11678 -0.36326,0.14269 -0.44111,0.51893 -0.6876,3.3472 -3.6845,4.98188 4.29426,-7.27819 3.55476,-15.52946 c -0.24649,-2.68553 -1.81631,-5.78624 -1.63469,-9.3021 q 0.0261,-0.66166 -0.37623,-1.1806 l -6.95388,-9.22427 q -0.32434,-0.44111 -0.83031,-0.63571 -0.76545,-0.29839 -1.33629,-0.0778 -0.57084,0.22054 -0.55786,0.84328 l 0.14271,6.27925 q 0.013,0.68761 -0.53192,1.1287 -3.51585,2.80232 -1.1806,7.92691 c 3.7494,8.23826 -5.69543,9.01668 -7.33012,15.25701 -1.07681,4.09966 -2.30931,5.63057 -5.29324,8.01771 -2.10173,1.68657 -5.24136,1.88119 -7.75824,4.09968 q -0.50596,0.44111 -1.16764,0.32434 -7.3301,-1.32331 -12.85687,3.46396 -0.53193,0.46705 -0.57085,1.18062 -0.10373,2.28334 -1.31034,4.21642 -0.36326,0.57084 -0.24649,1.2325 c 1.88118,10.92381 13.8818,-1.4271 16.58032,11.89683 q 0.12974,0.64869 0.58381,1.12871 1.14169,1.21954 1.45306,2.958 -0.94708,0.15568 -1.25845,1.03788 -4.37211,12.89582 -13.66126,22.74282 -0.48001,0.2465 -0.90815,0.2465 0.19459,-3.33423 -2.49094,-3.19152 c -3.1007,0.16866 -5.34515,-0.0778 -8.21231,-0.37624 -2.32229,-0.23352 -6.0068,0.33732 -9.1594,-0.96004 q -0.58382,-0.2465 -1.19358,-0.0519 l -1.06384,0.33732 c 7.81014,-13.60935 14.93267,-26.29757 19.18802,-40.49075 q 2.10174,-2.2704 2.63366,-5.423 0.11675,-0.64869 0.75247,-0.73949 c 4.32022,-0.66166 8.60153,-2.77636 12.23416,-3.69749 q 5.00782,-1.2844 9.92482,-2.88015 c 3.34721,-1.07682 0.25949,-3.95696 2.75042,-5.38407 q 0.57084,-0.32434 0.75247,-0.96005 1.49197,-5.46191 6.14953,-8.89993 0.41514,-0.31137 0.5319,-0.83031 0.72653,-3.33422 -1.84226,-5.44892 -0.46704,-0.38922 -0.35028,-0.97303 0.57084,-2.8542 -0.50598,-5.35812 0.32435,-9.08154 -1.95901,-17.76092 c -1.84226,-7.03172 -6.20141,-11.94874 -10.74219,-17.54037 l -0.73949,-1.60875 q -0.2984,-0.64867 0.0648,-1.25844 l 2.67257,-4.54077 a 1.3752069,1.3752069 0 0 1 2.3093,-0.10374 q 1.50496,2.14064 3.52885,2.69851 l -1.85524,1.55685 a 1.855232,1.8682056 46.2 0 0 -0.0648,2.81527 l 4.82618,4.35915 q 0.51895,0.48002 1.20655,0.60976 3.56776,0.71355 5.86409,4.61861 c 1.6347,2.76339 10.833,11.58548 14.84186,8.44585 q 0.51894,-0.40217 1.15465,-0.42813 c 2.8153,-0.0908 4.91702,1.14169 7.44688,1.31033 q 5.73435,0.36327 11.44277,0.90817 c 3.82723,0.36326 5.57866,2.93204 10.05456,-0.16867 2.01093,-1.38816 23.43042,-8.74424 16.32085,-14.15425 -4.47591,-3.41208 -14.80292,-3.77533 -20.42051,-4.48888 -9.12049,-1.15465 -20.96542,-0.6876 -31.3703,-2.47796 -1.94604,-0.33731 -3.07475,-1.34925 -5.22838,-1.36223 q -5.94193,-0.0129 -11.62438,-1.64766 2.08875,0.0778 1.94604,-1.84226 17.65716,-0.12974 34.6656,3.98291 c 4.54079,1.08979 15.98354,1.73847 19.31777,-2.21849 q 0.51894,-0.62274 0.0389,-1.27143 c -3.15258,-4.19047 -8.368,-0.12974 -13.24609,-2.08874 q -0.5968,-0.2465 -1.2325,-0.16866 c -5.66948,0.73949 -10.7811,-3.48992 -15.20511,-1.19357 q -0.60978,0.31136 -1.23251,0.0129 -4.04777,-1.972 -8.47179,-0.84329 -0.9341,0.2465 -1.95901,-0.67464 -0.44112,-0.40217 -1.0379,-0.45407 -10.17134,-0.85626 -20.17403,0.67463 -3.78829,-0.0517 -6.74628,-2.47796 c -4.11265,-3.37314 -7.99177,-5.38408 -11.41682,-9.18535 l -0.16865,-3.28235 c 2.77635,-2.80229 5.74732,2.97099 6.95388,5.09865 q 0.35027,0.60977 0.99896,0.85626 c 2.23146,0.88222 2.30931,2.2704 4.09968,3.29532 q 7.27821,4.13859 15.49052,2.65959 c 3.5418,-0.6357 4.91702,-3.42504 9.39294,-1.56981 q 4.51482,1.8682 9.39292,0.31138 0.37623,-0.0649 0.79139,0.12973 0.51893,0.2465 -0.0519,0.2465 h -0.70056 q -3.33425,0 -0.0261,0.33732 3.85318,0.40219 7.62851,1.03789 c 3.20449,0.53192 5.82517,2.04985 6.62954,-2.68555 q 0.11676,-0.72652 -0.37624,-1.27141 l -3.86615,-4.32024 q -0.44109,-0.493 -0.35029,-1.14167 0.38921,-2.84123 2.97097,-4.22943 l 2.14067,-0.42811 q 2.23144,3.95695 6.52572,4.15155 0.97303,0.0519 1.54388,-0.76544 0.35028,-0.493 0.1946,-1.07681 l -0.94708,-3.64559 q -0.14269,-0.54489 -0.60976,-0.83032 l -1.06384,-0.64867 z"
       id="path153"
       style="stroke-width:1.29735" />
    <path
       fill="#789f47"
       d="m 180.21261,158.6844 c 3.42504,3.80128 7.30416,5.81218 11.41681,9.18534 q 2.95799,2.42607 6.74629,2.47796 4.17752,3.33424 8.53666,4.24238 0.14272,1.92011 -1.94604,1.84226 l -2.59474,0.10385 q -2.02388,-0.55788 -3.52882,-2.69852 a 1.3752069,1.3752069 0 0 0 -2.30932,0.10385 l -2.67256,4.54077 q -0.36326,0.60976 -0.0647,1.25844 l 0.73951,1.60875 q -10.28813,-9.30212 -14.32293,-22.66497 z"
       id="path154"
       style="stroke-width:1.29735" />
    <path
       fill="#525038"
       d="m 206.91237,174.59008 q -4.35914,-0.90814 -8.53666,-4.24238 10.00269,-1.53088 20.17403,-0.67463 0.59678,0.0519 1.03789,0.45408 1.02491,0.92113 1.95902,0.67464 4.42401,-1.12872 8.47178,0.84328 0.62275,0.29839 1.23252,-0.0129 c 4.42401,-2.29632 9.53563,1.93307 15.20511,1.19357 q 0.63571,-0.0778 1.2325,0.16867 c 4.87809,1.95902 10.0935,-2.10173 13.2461,2.08875 q 0.48001,0.64869 -0.0389,1.27143 c -3.33422,3.95695 -14.77699,3.30827 -19.31776,2.21849 q -17.00846,-4.11266 -34.66561,-3.98292 z"
       id="path155"
       style="stroke-width:1.29735" />
    <path
       fill="#8d8e71"
       d="m 276.3214,175.23877 -4.2294,3.17854 q -0.63572,0.49301 -0.026,1.01195 c 3.94397,3.42504 7.87499,2.71149 12.57146,2.80231 q 0.14269,0 4.21643,0.5449 c 5.18946,0.71355 11.84494,-1.7774 16.20408,-3.42505 2.32229,-0.88221 3.85318,-3.451 7.45985,-2.21849 a 0.99897102,0.99897102 0 0 1 0.12974,1.84226 c -2.84122,1.44007 -4.87809,2.62067 -7.40794,4.99485 -6.57765,6.17546 -14.68618,4.15156 -20.31675,10.5865 q -0.86923,12.46767 0.88221,24.72778 0.31136,2.19254 -0.94707,4.89105 -0.28542,0.60976 -0.16866,1.2844 0.493,2.76339 -1.20655,4.86512 -0.49301,0.60976 -1.24547,0.35028 c -2.91908,-1.01195 -6.33115,-3.3472 -9.50969,-1.88118 q -0.58381,0.27246 -1.16763,0 l -3.61965,-1.71252 c -0.71354,-2.12767 0.40219,-5.11161 -1.86819,-6.91495 q -0.7395,-0.58381 0.11675,-0.97303 0.51896,-0.23352 1.11573,0 1.32332,0.50598 0.62274,-0.72653 c -0.4411,-0.76543 -2.38715,-1.73846 -2.58175,-0.18163 q -0.0519,0.42814 -0.4411,0.62275 c -3.76235,1.88118 -7.60257,1.1806 -10.94977,2.73742 q -3.65857,1.69956 -6.87603,4.1905 -0.51894,0.40218 -1.16763,0.46705 l -4.34617,0.4022 q -0.63571,0.0649 -1.06385,0.53191 c -3.77533,4.19048 -6.64249,7.60256 -8.67937,13.29798 -2.12767,5.90302 -4.3851,11.7282 -9.32805,15.99652 -5.07269,4.37213 -9.44481,10.43082 -7.34308,17.25496 q 1.45304,4.70943 1.59576,6.0587 c 0.63569,5.64353 0.0129,13.2331 4.80025,17.4236 3.69748,3.21748 7.51175,7.70636 12.33793,9.06858 q 9.4578,2.6596 18.98046,5.35814 l -0.20758,1.38817 q -0.10385,0.64867 0.25947,1.20654 l 6.81117,10.41785 -0.97304,0.64867 q -13.27203,-0.83031 -26.54408,0.0519 -5.05971,-1.15465 -10.00269,0.27245 -0.76544,-1.54387 -2.64661,-1.02492 c 0.0778,-6.30519 -6.11059,-7.77122 -10.05458,-11.02761 0.45407,-6.11059 -0.15568,-14.6213 -2.82825,-19.99239 a 1.1676285,1.1676285 0 0 1 1.28438,-1.66063 q 3.13963,0.66166 2.85421,-2.52986 -0.0649,-0.67463 0.0389,-1.33629 1.29737,-8.18636 -3.37314,-14.93266 l 2.04983,-2.56878 q 0.38922,-0.493 0.15569,-1.06385 -0.36325,-0.86923 -1.33629,-0.64869 -0.64868,0.14273 -1.06384,-0.37623 c -1.38817,-1.75144 2.93206,-7.6285 4.51483,-9.67834 3.82723,-4.95594 5.8641,-9.67834 8.78316,-14.89375 q 2.99692,-1.63468 3.68453,-4.98188 0.0778,-0.37624 0.44109,-0.51895 0.16865,-0.0648 0.36326,-0.11676 0.0648,-0.0261 0.0648,-0.0908 c 0.5968,-4.39806 2.3742,-8.96479 0.76546,-13.53153 -1.90714,-5.38405 -0.93411,-11.14435 -3.87911,-16.02245 q -1.40117,-2.33524 -0.93411,-4.17752 0.20757,-0.81733 1.05086,-0.76545 3.54181,0.23354 5.87705,-2.38714 0.44111,-0.50597 1.0898,-0.29839 c 10.23619,3.47694 21.76978,6.2014 31.81138,1.01194 2.50392,-1.29737 9.36698,-2.5039 10.58649,-4.41103 q 0.36327,-0.57085 1.02493,-0.70058 c 3.69749,-0.71355 15.03646,-8.40693 6.22735,-11.18328 q -6.83711,-2.14066 -14.60832,-2.89313 a 1.1546548,1.1546548 0 0 1 -0.22057,-2.25743 c 3.85318,-1.15464 8.49776,-5.61759 12.38984,-5.38405 z"
       id="path156"
       style="stroke-width:1.29735" />
    <path
       fill="#525038"
       d="m 202.37159,176.53613 2.59474,-0.10384 q 5.68246,1.63468 11.62438,1.64766 c 2.15365,0.0129 3.28233,1.02491 5.22838,1.36223 10.40487,1.79036 22.24982,1.32331 31.3703,2.47797 5.61759,0.71355 15.94461,1.07681 20.42053,4.48888 7.10956,5.41 -14.30994,12.76608 -16.32087,14.15425 -4.47591,3.1007 -6.22734,0.53191 -10.05456,0.16865 q -5.70841,-0.54488 -11.44277,-0.90815 c -2.52986,-0.16866 -4.6316,-1.40115 -7.44687,-1.31034 q -0.63572,0.026 -1.15466,0.42813 c -4.00885,3.13963 -13.20718,-5.68246 -14.84185,-8.44584 q -2.29634,-3.90507 -5.86409,-4.61862 -0.6876,-0.12974 -1.20655,-0.60976 l -4.8262,-4.35915 a 1.855232,1.8682056 46.2 0 1 0.0648,-2.81528 z"
       id="path157"
       style="stroke-width:1.29735" />
    <path
       fill="#9dbb8a"
       d="m 284.92292,194.55654 1.40118,15.98352 c 1.95901,7.17443 8.14745,24.32561 15.12725,27.75066 q 4.56674,2.24442 8.65343,5.33216 -0.0129,0.85627 -0.4411,1.27141 -0.42813,0.41517 -0.96003,0.18164 l -5.89005,-2.5558 q -0.68761,-0.28544 -0.90816,0.42811 -1.50494,4.92999 -5.0208,8.78317 -0.46705,0.51896 -0.0389,1.07681 c 2.15362,2.75042 4.8262,-0.24649 6.66845,-1.479 q 0.55786,-0.37623 0.98598,0.14272 c 2.04986,2.46499 3.82724,3.24341 7.30418,3.50287 3.99589,0.28543 8.35503,4.72243 11.04057,4.1386 q 5.92895,23.74178 18.72099,49.62421 1.90711,3.84021 0.3892,8.99074 -0.18164,0.63572 -0.70057,1.0379 -2.84123,2.19255 -4.60566,5.24136 h -1.94606 c -2.41309,-2.06283 -7.56362,0.23352 -9.74319,0.20758 q -3.60667,-0.0518 -10.34001,-0.90817 c -7.88798,-0.99898 -15.63323,-0.50596 -23.52122,-0.7395 -5.41001,-0.15567 -13.54448,0.0261 -20.40754,-1.05086 q -0.58382,-0.0908 -1.08979,0.19461 -2.32229,1.33628 -4.81324,0.66165 -1.58277,-0.41516 -0.0648,-1.02491 3.51585,-1.40116 5.5657,-4.61863 0.51893,-0.80436 1.15466,-0.10373 2.15361,2.34823 5.44891,1.88117 0.64868,-0.0908 0.85627,-0.71356 c 1.14168,-3.58072 -4.56672,-5.57867 -6.94091,-7.08361 l 1.02494,-1.24546 q 0.5838,0.0778 0.73949,0.63571 0.15568,0.58381 0.75247,0.66164 c 2.8542,0.37623 4.00886,-3.98289 3.26936,-5.8511 q -0.24651,-0.60977 -0.80437,-0.90816 l -2.15363,-1.14168 q -1.23248,-0.66166 0.0648,-1.15465 l 4.34618,-1.68658 q 0.53191,-0.20759 0.6876,-0.75248 c 2.24445,-7.55065 -6.7463,-4.91702 -10.19728,-5.09864 q 2.34823,-0.62273 4.74836,-1.19358 c 3.58072,-0.84328 7.17442,0.75247 10.78109,1.29737 q 1.15467,0.16866 0.7914,-0.94707 l -0.68762,-2.06283 q -0.15567,-0.48001 -0.0517,-0.96004 l 2.12766,-10.0416 q 0.11676,-0.57085 0.5968,-0.89518 2.12767,-1.40115 0.85626,-4.29428 -0.27246,-0.62275 -0.2984,-1.31034 l -0.15568,-6.33114 q -0.0261,-0.58381 0.31136,-1.07681 2.56879,-3.6456 -1.79036,-5.48786 l 0.16867,-0.59678 q 0.16864,-0.60976 0.59678,-1.08979 l 10.84598,-11.94874 q 0.67462,-0.75247 0.0778,-1.58278 l -1.8163,-2.52986 q -0.36325,-0.50597 0.0389,-0.98599 1.88117,-2.24445 1.14168,-5.11164 -0.16866,-0.6876 -0.8433,-0.45405 c -2.84123,1.02491 -2.91907,3.11366 -5.1635,4.72239 -3.21747,2.30932 -4.37213,5.04677 -3.24341,8.97776 q 0.16865,0.60977 0,1.23251 -0.86924,3.23044 -3.13963,5.37109 1.05087,-1.95902 0.51895,-4.12563 -0.15569,-0.60975 -0.77842,-0.6357 l -2.34823,-0.15567 q -1.14168,-0.0649 -0.72653,-1.12873 c 2.0239,-5.26729 -5.74733,-5.07269 -7.60257,-9.6913 q -2.14065,-5.33218 -3.89208,-10.70327 -0.16866,-0.51893 -0.71355,-0.66166 -0.88221,-0.23351 -0.99898,-1.44007 l 0.0518,-1.24548 3.61964,1.71252 q 0.58383,0.27246 1.16764,0 c 3.17854,-1.46602 6.5906,0.86923 9.50968,1.88118 q 0.75247,0.25948 1.24547,-0.35028 1.69955,-2.10173 1.20655,-4.86512 -0.11676,-0.67463 0.16866,-1.2844 1.25843,-2.69851 0.94707,-4.89105 -1.75144,-12.26011 -0.88221,-24.72778 z m 6.69441,100.6366 -0.24649,2.33525 q -0.0778,0.72652 0.57084,1.07682 2.78934,1.51792 4.76133,-0.60977 0.45407,-0.49301 0.59678,-1.14169 0.37623,-1.62169 1.34927,-2.95798 c 0.10384,4.25536 -1.27142,8.16042 4.19048,9.52266 q 5.25433,1.31034 8.97776,-1.55683 5.73437,1.71251 12.18226,0.7395 3.39911,0.75247 6.5517,-0.58382 0.59679,-0.25947 0.41515,-0.8822 l -0.20757,-0.77843 q -8.64045,-6.4998 -11.00166,-15.19214 -1.03788,-3.7883 -1.7255,-5.21542 -0.31135,-0.63571 -0.3892,-1.33629 -0.493,-4.44995 -3.07476,-8.19933 -0.40218,-0.58382 -0.19459,-1.25845 c 1.88117,-6.22735 -2.63367,-16.90465 -10.41784,-10.32702 -5.12461,4.33319 -7.93989,9.9897 -13.12933,14.82888 q -0.50598,0.46705 -0.14272,1.03789 l 1.1287,1.77739 q 0.46706,0.72652 -0.14271,1.33629 l -3.1007,3.1007 q -0.49301,0.49299 -0.44111,1.19358 0.12974,1.80333 1.6217,2.82824 0.49301,0.33732 0.57086,0.92115 z"
       id="path158"
       style="stroke-width:1.29735" />
    <path
       fill="#485d21"
       d="m 220.58661,243.94722 c -2.91908,5.21542 -4.95594,9.93781 -8.78317,14.89375 -1.58278,2.04983 -5.90301,7.9269 -4.51483,9.67834 q 0.41516,0.51896 1.06383,0.37624 0.97304,-0.22054 1.3363,0.64868 0.23353,0.57085 -0.15568,1.06384 l -2.04984,2.56879 q -3.3472,2.42607 -5.76031,5.85111 -0.37624,0.53192 -0.94707,0.85627 l -5.16351,2.98393 q -0.45408,-2.99691 -2.64663,-4.91701 -0.31137,-1.73848 -1.45305,-2.95799 -0.45407,-0.48003 -0.58382,-1.12871 c -2.69851,-13.32394 -14.69914,-0.97303 -16.5803,-11.89683 q -0.11677,-0.66168 0.24649,-1.23251 1.20654,-1.93307 1.31033,-4.21643 0.0389,-0.71355 0.57085,-1.18061 5.52678,-4.78727 12.85688,-3.46394 0.66165,0.11674 1.16763,-0.32436 c 2.51688,-2.2185 5.65651,-2.4131 7.75824,-4.09968 2.98394,-2.38715 4.21644,-3.91804 5.29324,-8.01771 1.63469,-6.24033 11.0795,-7.01874 7.33013,-15.25702 q -2.33527,-5.12459 1.1806,-7.92689 0.54488,-0.4411 0.53191,-1.1287 l -0.14271,-6.27926 q -0.013,-0.62274 0.55788,-0.84329 0.57083,-0.22054 1.33627,0.0778 0.50598,0.19459 0.83032,0.6357 l 6.95387,9.22427 q 0.4022,0.51893 0.37624,1.1806 c -0.18163,3.51586 1.38819,6.61655 1.63467,9.3021 q 0.73951,8.25125 -3.55476,15.52946 z"
       id="path159"
       style="stroke-width:1.29735" />
    <path
       fill="#789f47"
       d="m 207.23672,216.65066 q 1.0768,2.50392 0.50597,5.3581 -0.11677,0.58383 0.35029,0.97304 2.56878,2.11471 1.84226,5.44893 -0.11677,0.51895 -0.53191,0.83032 -4.65755,3.43801 -6.14952,8.89992 -0.18164,0.63571 -0.75247,0.96006 c -2.49095,1.4271 0.59678,4.30723 -2.75042,5.38405 q -4.91702,1.59576 -9.92483,2.88017 c -3.63263,0.92111 -7.91393,3.03583 -12.23416,3.69747 q -0.63572,0.0909 -0.75247,0.73951 -0.53192,3.15258 -2.63365,5.42298 c 4.74836,-14.16722 16.93061,-17.98149 28.23065,-25.00023 q 0.57085,-0.36326 0.83032,-0.97301 2.98394,-7.0447 3.96994,-14.62131 z"
       id="path160"
       style="stroke-width:1.29735" />
    <path
       fill="#b0ae8f"
       d="m 267.94043,227.08147 -0.0518,1.24547 q -0.75247,-1.55683 -2.07577,-2.63364 -0.49301,-0.40219 -0.92115,0.0648 -3.87911,4.26834 -4.09967,10.1454 -0.0261,0.63572 -0.38921,1.14167 c -3.56774,5.00784 -6.03274,10.0416 -6.47383,16.33384 -0.40219,5.74733 -3.59371,9.17237 -5.25434,14.47859 -1.46602,4.65754 -4.81323,10.11944 -4.91702,15.80193 -0.12974,7.22629 0.11677,10.61241 4.59268,16.06137 q 0.41515,0.49298 1.0379,0.35028 l 3.90506,-0.93412 q -3.16556,1.5309 -3.68452,4.90405 -0.10373,0.6876 0.32433,1.2325 l 3.19153,4.15158 q 0.40219,0.50596 0.16866,1.1287 l -0.42814,1.14167 q -9.52267,-2.69852 -18.98045,-5.35812 c -4.82619,-1.36221 -8.64045,-5.85112 -12.33794,-9.06857 -4.78727,-4.1905 -4.16454,-11.78007 -4.80025,-17.42361 q -0.14269,-1.34928 -1.59575,-6.0587 c -2.10173,-6.82414 2.27038,-12.88284 7.3431,-17.25497 4.94295,-4.26831 7.20036,-10.09349 9.32804,-15.9965 2.03686,-5.69543 4.90404,-9.1075 8.67938,-13.29799 q 0.42811,-0.46705 1.06384,-0.53191 l 4.34616,-0.40218 q 0.64869,-0.0649 1.16763,-0.46706 3.21745,-2.49094 6.87605,-4.1905 c 3.3472,-1.55682 7.18738,-0.85624 10.94974,-2.73743 q 0.38921,-0.1946 0.44111,-0.62273 c 0.19461,-1.55685 2.14065,-0.58382 2.58176,0.18163 q 0.70058,1.2325 -0.62274,0.72651 -0.59679,-0.23351 -1.11573,0 -0.85627,0.38922 -0.11676,0.97303 c 2.27038,1.80334 1.15465,4.78729 1.86819,6.91496 z"
       id="path161"
       style="stroke-width:1.29735" />
    <path
       fill="#cdceb5"
       d="m 267.88853,228.32694 q 0.11677,1.20655 0.99897,1.44008 0.54489,0.14271 0.71355,0.66166 1.75145,5.37109 3.8921,10.70326 c 1.85524,4.61862 9.62645,4.42402 7.60257,9.6913 q -0.41518,1.06386 0.72652,1.12872 l 2.34821,0.15569 q 0.62275,0.0261 0.77843,0.6357 0.53192,2.1666 -0.51894,4.12563 -1.75144,2.33526 -1.99794,5.17648 -0.0778,0.8303 0.75246,0.7395 1.51793,-0.15569 2.58176,-1.9201 4.35914,1.84226 1.79036,5.48785 -0.33731,0.49301 -0.31137,1.07681 l 0.15569,6.33115 q 0.026,0.68759 0.29839,1.31032 1.27143,2.89315 -0.85625,4.29429 -0.48003,0.32434 -0.5968,0.89519 l -2.12767,10.0416 q -0.10374,0.48002 0.0517,0.96004 l 0.6876,2.06282 q 0.36327,1.11574 -0.79139,0.94707 c -3.60668,-0.54489 -7.20037,-2.14064 -10.7811,-1.29736 q -2.40012,0.57085 -4.74835,1.19357 c -3.58073,0.14272 -11.41682,-1.98496 -12.00063,2.99692 q -0.0908,0.70056 -0.7914,0.83031 -1.47899,0.28542 -2.45203,1.14169 l -3.90505,0.93411 q -0.62274,0.14269 -1.0379,-0.35029 c -4.47591,-5.44895 -4.72241,-8.83507 -4.59268,-16.06138 0.10385,-5.68247 3.45101,-11.14438 4.91702,-15.80191 1.66063,-5.30623 4.85214,-8.73127 5.25433,-14.47859 0.44111,-6.29223 2.9061,-11.326 6.47386,-16.33384 q 0.36326,-0.50596 0.38919,-1.14168 0.22057,-5.87707 4.09969,-10.14539 0.42812,-0.46705 0.92112,-0.0648 1.32331,1.07682 2.07578,2.63365 z"
       id="path162"
       style="stroke-width:1.29735" />
    <path
       fill="#789f47"
       d="m 285.76622,260.86486 q -1.06383,1.76441 -2.58176,1.9201 -0.83031,0.0908 -0.75246,-0.7395 0.2465,-2.84122 1.99794,-5.17648 2.27039,-2.14066 3.13962,-5.37109 0.16866,-0.62275 0,-1.23251 c -1.12871,-3.93101 0.026,-6.66844 3.24342,-8.97776 2.24443,-1.60873 2.32228,-3.69748 5.16351,-4.72239 q 0.67463,-0.23355 0.84328,0.45405 0.7395,2.86718 -1.14168,5.11164 -0.40218,0.48001 -0.0389,0.98599 l 1.8163,2.52986 q 0.59679,0.83031 -0.0778,1.58278 l -10.84597,11.94874 q -0.42811,0.48002 -0.59678,1.08979 z"
       id="path163"
       style="stroke-width:1.29735" />
    <path
       fill="#d2deaa"
       d="m 310.10478,243.62288 q 9.06859,5.5138 12.74014,15.49053 c -2.68556,0.58383 -7.0447,-3.85317 -11.0406,-4.1386 -3.47692,-0.25946 -5.25431,-1.03788 -7.30416,-3.50287 q -0.42812,-0.51895 -0.98598,-0.14272 c -1.84225,1.23251 -4.51483,4.22942 -6.66847,1.479 q -0.42812,-0.55785 0.0389,-1.07681 3.51587,-3.85318 5.02082,-8.78317 0.22053,-0.71355 0.90813,-0.42811 l 5.89006,2.5558 q 0.53191,0.23353 0.96005,-0.18164 0.42812,-0.41514 0.4411,-1.27141 z"
       id="path164"
       style="stroke-width:1.29735" />
    <path
       fill="#8d8e71"
       d="m 330.75884,300.35665 -5.99383,-2.85422 q -0.55787,-0.25946 -0.89517,-0.7784 c -3.03585,-4.59267 -5.25433,-6.82414 -5.70842,-13.38881 q -0.0389,-0.66165 -0.50597,-1.12871 c -2.81529,-2.81528 -3.451,-8.03067 -4.46293,-11.65033 -1.07681,-3.85318 0.0518,-7.27823 -2.20552,-11.44277 q -0.46705,-0.85625 -1.15465,-0.18162 l -4.8262,4.68347 q -0.4022,0.38922 -0.94709,0.55789 c -4.11264,1.3233 -10.06754,4.35913 -6.42194,8.82206 q 0.3892,0.46707 0.41515,1.08979 0.16866,3.19152 -2.43904,4.70945 -0.60979,0.35029 -0.75247,1.03789 l -3.24343,15.3608 -1.29735,-9.34102 q -0.0778,-0.58383 -0.57086,-0.92115 -1.49196,-1.02491 -1.6217,-2.82824 -0.0519,-0.70059 0.44111,-1.19358 l 3.1007,-3.1007 q 0.60977,-0.60977 0.14271,-1.33629 l -1.1287,-1.77739 q -0.36326,-0.57084 0.14272,-1.03789 c 5.18944,-4.83918 8.00472,-10.49569 13.12933,-14.82888 7.78417,-6.57763 12.29901,4.09967 10.41784,10.32702 q -0.20759,0.67463 0.19459,1.25845 2.58176,3.74938 3.07476,8.19933 0.0778,0.70058 0.3892,1.33629 0.68762,1.42712 1.7255,5.21542 2.36121,8.69234 11.00166,15.19214 z"
       id="path165"
       style="stroke-width:1.29735" />
    <path
       fill="#63763d"
       d="m 330.75884,300.35665 0.20757,0.77843 q 0.18164,0.62273 -0.41515,0.8822 -3.15259,1.33629 -6.5517,0.58382 0.89518,-1.49198 0.14271,-3.10071 -0.28541,-0.59679 -0.8822,-0.89518 -1.33629,-0.64869 -1.56981,-2.20553 -0.026,-0.23352 -0.25947,-0.23352 h -0.45408 q -0.45409,0 -0.60976,-0.42813 -0.60977,-1.75145 -2.03687,-2.81528 -0.60975,-0.45408 -0.83031,-1.1806 -0.88221,-2.81528 -3.50288,-4.16454 -0.71355,-0.36326 -1.02492,-1.11574 l -2.5169,-6.27925 q -0.19459,-0.45407 0.0778,-0.86924 1.36223,-2.19254 -0.33731,-3.6845 -0.54491,-0.48004 -0.70059,-1.18062 l -0.80436,-3.78829 q -0.12974,-0.63571 0.28541,-1.11574 1.50495,-1.73848 0.20759,-3.33422 -0.42813,-0.53193 -0.42813,-1.20656 v -2.23147 a 0.75247171,0.73949803 67.6 0 0 -1.27142,-0.53192 q -3.10071,3.1007 -5.39705,6.70738 c -1.66061,2.60771 -1.33628,5.60463 -3.04881,8.26422 a 2.0238896,2.0238896 0 0 0 0.80437,2.91907 q 2.23147,1.08979 2.10174,3.33422 -2.71149,4.85216 -3.29531,10.43082 -0.97302,1.33629 -1.34926,2.95798 -0.14271,0.64868 -0.59679,1.14169 -1.97198,2.12769 -4.76133,0.60977 -0.64867,-0.3503 -0.57083,-1.07682 l 0.24649,-2.33525 3.24343,-15.3608 q 0.14268,-0.6876 0.75246,-1.03789 2.60771,-1.51793 2.43904,-4.70945 -0.0261,-0.62272 -0.41514,-1.08979 c -3.64561,-4.46293 2.3093,-7.49876 6.42194,-8.82206 q 0.54488,-0.16867 0.94708,-0.55789 l 4.82618,-4.68347 q 0.68763,-0.67463 1.15466,0.18162 c 2.25741,4.16454 1.12872,7.58959 2.20552,11.44277 1.01195,3.61966 1.64766,8.83505 4.46295,11.65033 q 0.46704,0.46706 0.50597,1.12871 c 0.45408,6.56467 2.67257,8.79614 5.70841,13.38881 q 0.33731,0.51894 0.89519,0.7784 z"
       id="path166"
       style="stroke-width:1.29735" />
    <path
       fill="#485d21"
       d="m 323.99956,302.6011 q -6.44789,0.97301 -12.18226,-0.7395 -5.39702,-7.1485 -7.35604,-15.34784 -0.32435,-1.33629 -2.5169,-3.04881 0.12974,-2.24443 -2.10173,-3.33422 a 2.0238896,2.0238896 0 0 1 -0.80436,-2.91907 c 1.71251,-2.65959 1.38819,-5.65651 3.04879,-8.26422 q 2.29634,-3.60668 5.39705,-6.70738 a 0.75247171,0.73949803 67.6 0 1 1.27143,0.53192 v 2.23147 q 0,0.67463 0.42813,1.20656 1.29734,1.59574 -0.20759,3.33422 -0.41516,0.48003 -0.28542,1.11574 l 0.80437,3.78829 q 0.15568,0.70058 0.70058,1.18062 1.69954,1.49196 0.33731,3.6845 -0.27244,0.41517 -0.0778,0.86924 l 2.5169,6.27925 q 0.31136,0.75248 1.02492,1.11574 2.62067,1.34926 3.50288,4.16454 0.22056,0.72652 0.83031,1.1806 1.42711,1.06383 2.03687,2.81528 0.15568,0.42813 0.60977,0.42813 h 0.45406 q 0.23353,0 0.25947,0.23352 0.23355,1.55684 1.56982,2.20553 0.59679,0.29839 0.88221,0.89518 0.75247,1.60873 -0.1427,3.10071 z"
       id="path167"
       style="stroke-width:1.29735" />
    <path
       fill="#63763d"
       d="m 207.48322,273.17686 q 4.67051,6.7463 3.37316,14.93266 -0.10385,0.66166 -0.0389,1.33629 0.28541,3.19152 -2.85421,2.52986 a 1.1676285,1.1676285 0 0 0 -1.28439,1.66063 c 2.67257,5.37108 3.28233,13.88181 2.82825,19.99239 q -1.36223,0.0778 -2.01091,0.98601 -0.42813,0.58381 0.11675,1.06383 1.40116,1.28438 1.89416,3.13962 -1.93306,-0.16865 -1.94604,1.62171 -1.16763,-1.58278 -3.08773,-0.67463 a 0.90815545,0.89518189 69.6 0 0 -0.48003,1.06384 q 2.15363,7.40795 5.83814,14.20615 -1.50494,0.70057 -2.93204,0.24649 -0.63571,-0.20758 -0.89517,-0.80436 l -3.91805,-8.9129 q -0.27245,-0.62272 -0.92114,-0.42813 l -2.63364,0.79139 q -0.75248,0.22056 -0.59679,0.99897 0.62274,3.06179 1.25845,6.08464 c 0.80436,3.81426 3.33422,7.60257 2.52986,12.72716 q -3.32127,3.20449 -6.48684,0.10384 l 0.72654,-0.46704 q 0.49299,-0.31139 0.32433,-0.86924 -1.68658,-5.22838 -7.23929,-4.8262 -0.71355,0.0519 -1.31033,-0.32434 -2.54285,-1.58279 -2.80232,-3.72344 -1.31033,-10.85895 -10.96274,-10.37892 c -7.44687,0.36325 -14.69913,-0.58382 -22.19791,0.0518 -4.72242,-5.423 -10.00268,-9.84701 -3.84019,-17.13819 l 2.37417,0.93409 q 0.63571,0.2465 1.20656,-0.11675 c 4.35914,-2.67258 11.20921,-1.98498 16.21705,-2.0758 q 0.6357,-0.0129 1.19358,0.27246 c 3.72344,1.88116 7.34309,-1.18061 10.74218,-3.60669 q 7.9788,1.89416 15.60729,4.7743 c 6.30521,2.38717 4.60565,-5.6565 4.41106,-9.12047 -0.31138,-5.47488 -2.64663,-10.93678 -4.07375,-16.35977 l 5.16354,-2.98393 q 0.57083,-0.32435 0.94707,-0.85627 2.41309,-3.42504 5.76029,-5.85111 z m -13.53152,49.52041 c 0.38921,1.44008 1.62172,2.29634 3.0099,1.23251 2.89311,-2.23148 -1.31035,-4.60564 -3.45101,-2.91907 q -0.29838,0.24648 -0.25946,0.6357 0.026,0.24649 0.1427,0.37624 0.55787,0.6357 0.55787,0.67462 z m -2.5558,10.76813 q 3.33422,0.6876 3.51585,-2.27039 0.28543,-4.51483 -4.16454,-6.16248 -0.67463,-3.29529 -5.47488,-2.90609 a 1.0508657,1.0638392 76.6 0 0 -0.89519,1.45305 q 1.12872,2.77635 0.51895,5.72137 -0.12973,0.64869 0.23352,1.19357 l 4.38511,6.59063 q 0.41516,0.59678 1.14168,0.59678 c 2.6077,0 1.28438,-3.02286 0.7395,-4.21644 z"
       id="path168"
       style="stroke-width:1.29735" />
    <path
       fill="#ffffff"
       d="m 192.9657,277.95116 q 2.19255,1.9201 2.64663,4.91701 c 1.42712,5.42299 3.76235,10.8849 4.07372,16.35977 0.19462,3.46396 1.89416,11.50763 -4.41104,9.12046 q -7.6285,-2.88014 -15.60731,-4.77429 l -1.62169,-1.84226 q 9.28913,-9.847 13.66126,-22.74281 0.31136,-0.8822 1.25843,-1.03788 z m 108.97866,5.51379 q 2.19255,1.71252 2.5169,3.04881 1.95902,8.19934 7.35604,15.34784 -3.72343,2.86717 -8.97776,1.55683 c -5.4619,-1.36224 -4.0867,-5.2673 -4.19048,-9.52266 q 0.58382,-5.57866 3.2953,-10.43082 z"
       id="path169"
       style="stroke-width:1.29735" />
    <path
       fill="#485d21"
       d="m 271.83252,309.46416 c 0.72654,-3.94401 -7.73229,-0.8433 -9.58753,0.026 q -0.84329,0.4022 -0.46706,1.25847 l 0.38921,0.90815 q 0.25949,0.62272 0.93412,0.60975 3.99587,-0.0518 7.70635,-1.55684 c 2.37418,1.50494 8.08258,3.50291 6.9409,7.08362 q -0.20759,0.62274 -0.85627,0.71355 -3.2953,0.46705 -5.44894,-1.88118 -0.63569,-0.70057 -1.15464,0.10375 -2.04984,3.21746 -5.5657,4.61861 -1.51793,0.60977 0.0648,1.02493 2.49095,0.67462 4.81323,-0.66166 0.50597,-0.28543 1.08979,-0.1946 c 6.86305,1.07682 14.99754,0.89518 20.40754,1.05086 7.88799,0.23353 15.63325,-0.25947 23.52123,0.73949 q 6.73333,0.85627 10.34,0.90816 c 2.17957,0.0261 7.33011,-2.27039 9.7432,-0.20757 l -5.66947,1.59575 q -0.67463,0.19461 -0.76545,0.88222 l -0.0518,0.37623 q -0.0908,0.71355 -0.80438,0.73949 c -8.35503,0.37625 -16.85278,-0.96003 -24.72777,-0.36326 -5.38408,0.40219 -11.17031,1.56982 -16.56737,0.73951 q -0.6357,-0.10375 -1.18058,0.2465 -1.93308,1.2714 -3.6975,-0.27245 -6.91495,-1.85523 -14.97158,-0.97303 -3.65857,0.40219 -6.53873,-2.27039 l -6.81117,-10.41783 q -0.36326,-0.55787 -0.25947,-1.20655 l 0.20758,-1.3882 0.42812,-1.14167 q 0.23355,-0.62274 -0.16864,-1.1287 l -3.19153,-4.15157 q -0.42813,-0.5449 -0.32434,-1.23251 0.51895,-3.37314 3.68451,-4.90403 0.97304,-0.85627 2.45202,-1.14168 0.70059,-0.12975 0.79141,-0.83032 c 0.5838,-4.98187 8.41989,-2.85419 12.00062,-2.99691 3.45099,0.18164 12.44173,-2.45202 10.19729,5.09865 q -0.15568,0.54488 -0.68761,0.75246 l -4.34617,1.68658 q -1.29737,0.493 -0.0649,1.15466 l 2.15363,1.14167 q 0.55787,0.29839 0.80436,0.90817 c 0.7395,1.8682 -0.41515,6.22735 -3.26936,5.85111 q -0.59679,-0.0778 -0.75246,-0.66165 -0.15569,-0.55788 -0.7395,-0.63571 z m -94.69466,-7.48581 q -13.58342,-0.99897 -26.66086,2.24446 l 4.54078,-6.48683 1.06384,-0.33732 q 0.60976,-0.1946 1.19357,0.0519 c 3.1526,1.29735 6.83712,0.72651 9.1594,0.96005 2.86719,0.29838 5.11162,0.54488 8.21233,0.37624 q 2.68553,-0.14272 2.49094,3.19151 z"
       id="path170"
       style="stroke-width:1.29735" />
    <path
       fill="#9dbb8a"
       d="m 177.13786,301.97835 q 0.42812,0 0.90815,-0.2465 l 1.62169,1.84226 c -3.39909,2.42608 -7.01873,5.48786 -10.74216,3.60669 q -0.55788,-0.28543 -1.19357,-0.27246 c -5.00785,0.0908 -11.85793,-0.59678 -16.21708,2.07578 q -0.57083,0.36327 -1.20655,0.11677 l -2.37417,-0.93411 2.54283,-3.94397 q 13.07744,-3.24343 26.66086,-2.24446 z"
       id="path171"
       style="stroke-width:1.29735" />
    <path
       fill="#d2deaa"
       d="m 271.83252,309.46416 -1.02491,1.24546 q -3.71048,1.50494 -7.70635,1.55684 -0.67463,0.0129 -0.93412,-0.60976 l -0.38921,-0.90817 q -0.37623,-0.85625 0.46706,-1.25843 c 1.85524,-0.86924 10.31407,-3.96995 9.58753,-0.0261 z"
       id="path172"
       style="stroke-width:1.29735" />
    <path
       fill="#9dbb8a"
       d="m 209.50711,313.62869 c 3.944,3.25639 10.13242,4.72242 10.05457,11.02761 q -1.84225,0.72652 -3.67154,0.28543 -0.6357,-0.15569 -0.97302,-0.71356 -1.99795,-3.38613 -5.41001,-5.41002 -0.493,-1.85524 -1.89416,-3.13962 -0.54489,-0.48002 -0.11675,-1.06383 0.64868,-0.90816 2.01091,-0.98601 z"
       id="path173"
       style="stroke-width:1.29735" />
    <path
       fill="#012e7e"
       d="m 209.50711,318.81815 q 3.41206,2.02389 5.41001,5.41002 0.33732,0.55787 0.97302,0.71356 1.82929,0.44109 3.67154,-0.28543 1.88118,-0.51895 2.64663,1.02492 l 0.40219,19.34371 q 0.0129,0.80436 -0.80438,0.80436 l -20.08321,-0.0908 c 0.80438,-5.1246 -1.72548,-8.91291 -2.52985,-12.72717 q -0.63573,-3.02284 -1.25846,-6.08463 -0.15566,-0.77841 0.5968,-0.99898 l 2.63365,-0.79138 q 0.64868,-0.1946 0.92113,0.42813 l 3.91805,8.91289 q 0.25946,0.59678 0.89517,0.80437 1.4271,0.45407 2.93204,-0.2465 l 2.77636,-1.01194 a 1.8811793,1.8811793 0 0 0 1.01195,-2.68555 l -6.05869,-10.89786 q 0.013,-1.79037 1.94605,-1.62171 z"
       id="path174"
       style="stroke-width:1.29735" />
    <path
       fill="#d2deaa"
       d="m 207.56106,320.43986 6.05869,10.89787 a 1.8811793,1.8811793 0 0 1 -1.01195,2.68555 l -2.77636,1.01194 q -3.68451,-6.7982 -5.83814,-14.20615 a 0.90815545,0.89518189 69.6 0 1 0.48003,-1.06384 q 1.9201,-0.90815 3.08773,0.67463 z"
       id="path175"
       style="stroke-width:1.29735" />
    <path
       fill="#9dbb8a"
       d="m 193.39383,322.02265 q -0.11676,-0.12975 -0.1427,-0.37624 -0.039,-0.38922 0.25946,-0.6357 c 2.14066,-1.68657 6.34412,0.68759 3.45101,2.91907 -1.38818,1.06383 -2.62069,0.20757 -3.0099,-1.23251 q 0,-0.0389 -0.55787,-0.67462 z m -2.64662,3.00988 -2.71149,1.36224 q -0.73949,0.37623 -0.31136,1.08978 l 3.67154,5.98085 c 0.54488,1.19358 1.8682,4.21644 -0.7395,4.21644 q -0.72652,0 -1.14168,-0.59678 l -4.38511,-6.59063 q -0.36325,-0.54488 -0.23352,-1.19357 0.60977,-2.94502 -0.51895,-5.72137 a 1.0508657,1.0638392 76.6 0 1 0.89519,-1.45305 q 4.80025,-0.3892 5.47488,2.90609 z"
       id="path176"
       style="stroke-width:1.29735" />
    <path
       fill="#012e7e"
       d="m 90.486841,381.41602 -31.707604,0.16866 q -0.739496,0 -0.739496,-0.75247 V 364.187 q 0,-0.73949 0.739496,-0.72652 l 59.276613,0.2465 q 0.4411,0 0.46704,0.4411 0.73951,19.73293 -0.57083,32.46008 c -1.28439,12.58445 -10.49569,17.24197 -22.210892,17.69606 q -28.892321,1.10276 -57.771663,0.31136 C 16.809484,414.04475 5.7559335,408.72555 4.0434168,386.68332 Q 2.5903656,367.89748 4.2250483,349.13757 C 6.0543262,328.06837 25.35912,324.17627 42.652998,324.09843 q 21.160015,-0.10384 42.307066,0 c 13.194197,0.0648 27.244666,2.64662 32.174636,16.45059 q 1.11575,3.1526 0.50598,14.36183 -0.013,0.4411 -0.46705,0.4411 l -24.585059,0.0389 a 0.89518189,0.90815545 88.3 0 1 -0.908161,-0.84328 q -0.505967,-8.45882 -9.250209,-8.58856 -25.986219,-0.38921 -37.688443,-0.11676 c -17.760931,0.40218 -13.246101,21.93844 -13.336918,33.04389 -0.116762,13.45367 8.497741,15.12727 20.199969,15.20512 q 13.246096,0.0908 26.557061,0 c 7.382005,-0.0389 14.932668,-2.77637 13.2461,-11.89685 Q 91.265257,381.416 90.486841,381.416 Z m 244.215989,-57.4084 h 1.94604 c 24.42939,0.23352 46.91272,1.38817 45.01858,32.95306 q -0.0519,0.83032 -0.88221,0.83032 h -25.63595 q -0.6876,0 -0.66164,-0.68759 c 0.20757,-5.98086 -2.67257,-9.30213 -8.78316,-9.47078 q -18.27988,-0.493 -36.49488,-0.0778 c -15.3608,0.36326 -13.8818,12.68823 -13.82991,23.61204 0.0518,11.31302 -0.40218,21.06921 13.41475,21.23787 q 15.99651,0.18162 32.08384,0.1427 c 7.58958,-0.0261 14.1802,-0.97303 13.97261,-10.17133 q -0.0389,-1.88119 1.84227,-1.88119 H 381.395 q 0.70057,0 0.7395,0.71355 0.60975,14.07641 -0.71356,17.76093 c -4.67051,12.9477 -15.12727,15.55542 -27.65982,15.69811 q -24.28667,0.28542 -48.57334,0.16867 -9.69132,-0.0389 -17.35874,-1.56982 c -25.57108,-5.11161 -20.96543,-36.74139 -20.91353,-55.24181 0.0129,-6.43491 2.49095,-21.03028 7.83608,-24.81859 q 3.42504,-2.42606 6.48682,-5.25433 1.76444,1.54387 3.69749,0.27246 0.5449,-0.35027 1.18061,-0.24651 c 5.39704,0.83032 11.18328,-0.33731 16.56735,-0.73949 7.87501,-0.59679 16.37275,0.73949 24.72778,0.36326 q 0.71355,-0.0261 0.80438,-0.73949 l 0.0517,-0.37624 q 0.0908,-0.6876 0.76545,-0.88223 z m 89.51819,90.81555 c -22.83362,-0.10374 -36.50786,-5.4749 -36.62461,-31.11082 q -0.0778,-16.04841 0.0261,-32.07086 c 0.14271,-22.43144 19.75887,-27.49117 38.15551,-27.55604 q 23.54718,-0.0778 47.09434,-0.0389 c 12.14334,0.0129 26.93329,3.87912 32.61577,15.62027 4.94295,10.22323 3.26935,31.37027 2.97096,43.74715 -0.55788,23.87151 -11.62438,30.78647 -34.38017,31.13675 q -24.9224,0.38922 -49.85774,0.27246 z m 56.10585,-55.03941 A 12.350916,12.350916 0 0 0 467.95519,347.4549 l -40.37401,0.07 a 12.350916,12.350916 0 0 0 -12.33015,12.37298 l 0.0362,20.26483 a 12.350916,12.350916 0 0 0 12.37168,12.32886 l 40.374,-0.0701 a 12.350916,12.350916 0 0 0 12.33016,-12.37298 z m -328.5525,-34.47877 c 7.49877,-0.63572 14.75104,0.31135 22.19791,-0.0518 q 9.65239,-0.48004 10.96273,10.37891 0.25948,2.14065 2.80231,3.72343 0.59679,0.37624 1.31035,0.32434 5.55271,-0.40218 7.23929,4.82621 0.16865,0.55786 -0.32434,0.86923 l -0.72653,0.46705 -41.82705,-0.0129 q -0.66165,0 -0.66165,0.66163 v 13.2461 a 0.97302376,0.97302376 0 0 0 0.97302,0.97304 h 64.54391 q 0.64868,0 0.64868,0.64867 v 15.77597 q 0,0.77842 -0.77842,0.76543 h -64.08982 q -1.29737,0 -1.29737,1.29736 v 12.97366 q 0,0.64869 0.64868,0.64869 h 69.64255 q 0.55788,0 0.55788,0.55786 l -0.039,20.16106 q 0,0.71353 -0.71354,0.71353 l -96.84832,-0.0129 q -0.493,0 -0.493,-0.49301 v -88.06522 q 0,-0.6876 0.68761,-0.6876 z"
       id="path177"
       style="stroke-width:1.29735" />
    <path
       fill="#012e7e"
       d="m 190.74721,325.03253 q 4.44997,1.64765 4.16454,6.16248 -0.18163,2.95799 -3.51585,2.27039 l -3.67154,-5.98085 q -0.42813,-0.71355 0.31136,-1.08978 z m 68.00786,0.32434 0.0519,88.15595 a 0.83031358,0.83031358 0 0 1 -0.84328,0.83031 l -25.22077,-0.10374 q -0.51896,-0.0129 -0.51896,-0.53189 l -0.0129,-88.29867 q 13.27204,-0.88221 26.54409,-0.0519 z"
       id="path178"
       style="stroke-width:1.29735" />
  </g>
</svg>
