<svg fill="currentColor" version="1.1" viewBox="0 0 512 512" xmlns="http://www.w3.org/2000/svg"><path d="m455.3 245.9c5.7-2.8 10.7-2 15 2.5-17 13.6-36.3 18.8-58.1 15.5-17.8-3.2-35.5-6.8-53.1-11-42.5-9.2-62.7 7.9-60.6 51.6 1.1 10.4 3.8 20.4 8 30 5.4 10.1 11.2 19.8 17.5 29.1-5.7-.3-11.4-.8-17-1.5 20.8 15.9 36.8 35.6 48.1 59.1-4.8-1.6-9.8-2.8-15-3.5 2.7 6.6 5.5 13.2 8.2 19.8-21.4 8.1-44.6 12.6-68.9 12.6-41.4 0-79.8-13-111.3-35.1-.4-4.8-.3-9.5.3-14.3 1.3-12.1 3-24.1 5-36.1-9.4 11.3-16.5 23.9-21.3 37.9-2.4-2.1-4.7-4.2-6.9-6.3 3-20.9 9.5-40.6 19.7-59.1-2.3.4-4.6.4-7 0 1.2.9 1.2 1.7 0 2.5-4.7 3.3-9.4 6.7-14 10 13.2-28.7 32.2-52.9 57.1-72.6 6.9-4.6 14.3-8.5 22-11.5 2.1 13.4 5.6 26.4 10.5 39.1.6 1.6 1.6 3 3 4 9.7-18.2 21.6-34.9 35.5-50.1l-1-1c-11.5 6.3-21.7 14.3-30.5 24-4-11-6.3-22.4-7-34-.4-.9-1.1-1.6-2-2-15.7 5.5-30.3 12.8-44.1 22 5.6-18.1 14.1-34.8 25.5-50.1-1.9-1.1-3.9-1.3-6-.5-6.3 1.9-12.7 3.8-19 5.5v-1c18.5-21.6 41.8-35 70.1-40.1-7.5-3.3-15.1-6.2-23-8.5 20.5-.2 40.2 3.8 59.1 12 26 13 51.3 27 76.1 42.1 26.4 15.4 54.7 21.7 85.1 19" clip-rule="evenodd" fill-rule="evenodd" opacity=".2"/><path d="m279.4 1.3008c-42.037 0-81.692 10.204-116.67 28.23 28.872 5.7587 54.217 17.974 75.992 36.648 13.11-2.8034 26.717-4.2793 40.682-4.2793 47.8 0 91.6 17.2 125.4 45.9l39.199-46.301c-44.4-37.5-101.9-60.199-164.6-60.199zm-123.37 31.807c-14.683 8.1266-28.485 17.652-41.23 28.393-55.1 46.7-90.201 116.5-90.201 194.5 0 140.7 114 254.7 254.7 254.7 59.3 0 113.9-20.199 157.2-54.199l11.6-9.0996v-135.9h-60.6v95.338c.0333.0207.0663.0418.0996.0625v10.299c-30.9 20.8-68 32.9-108.1 32.9h-.0996c-106.2 0-192.47-85.283-194.08-191.1h-.32227c.10336-.28606.20814-.57195.3125-.85742-.0077-.71331-.01172-1.4274-.01172-2.1426 0-59.4 26.699-112.5 68.799-148.2 5.008-4.2251 10.229-8.2035 15.643-11.916-8.29-19.859-12.841-40.775-13.711-62.777zm169.97 111.39c-.2.3-.59922.69922-1.1992 1.1992-.9.75-1.3 1.0016-2 1.6016-.8.5-1.5008 1-2.3008 1.5-.7.5-1.4.89961-2 1.0996v5.0996c.5-.2 1.1008-.39922 1.8008-.69922s1.3996-.7 2.0996-1 1.4-.70156 2-1.1016c.7-.5 1.2992-.89883 1.6992-1.2988v17.299h5.5v-23.699z" clip-rule="evenodd" fill-rule="evenodd"/><path d="m155.9 28.301c.5 32.9 9.1 63.4 26 91.6-28.1 18-51.5 40.8-70.1 68.6.2.2.49922.3.69922.5s.39922.3.69922.5c5-2.3 10.2-3.8 15.5-4.5-19.3 21.9-33.799 46.6-43.699 74h.40039c.81498 53.89 23.605 102.46 59.807 137.15 3.0031-20.882 9.5013-40.565 19.693-59.051-2.3.4-4.6.4-7 0 1.2.9 1.2 1.7 0 2.5-4.7 3.3-9.4 6.7-14 10 13.2-28.7 32.2-52.9 57.1-72.6 6.9-4.6 14.3-8.5 22-11.5 2.1 13.4 5.6 26.4 10.5 39.1.6 1.6 1.6 3 3 4 9.7-18.2 21.6-34.9 35.5-50.1l-1-1c-11.5 6.3-21.7 14.3-30.5 24-4-11-6.3-22.4-7-34-.4-.9-1.1-1.6-2-2-15.7 5.5-30.3 12.8-44.1 22 5.6-18.1 14.1-34.8 25.5-50.1-1.9-1.1-3.9-1.3-6-.5-6.3 1.9-12.7 3.8-19 5.5v-1c18.5-21.6 41.8-35 70.1-40.1-7.5-3.3-15.1-6.2-23-8.5 20.5-.2 40.2 3.8 59.1 12 26 13 51.3 27 76.1 42.1 26.4 15.4 54.702 21.7 85.102 19 5.7-2.8 10.7-2 15 2.5-17 13.6-36.302 18.8-58.102 15.5-17.8-3.2-35.5-6.8-53.1-11-42.5-9.2-62.7 7.8996-60.6 51.6 1.1 10.4 3.8 20.4 8 30 5.4 10.1 11.2 19.8 17.5 29.1-5.7-.3-11.4-.8-17-1.5 20.8 15.9 36.8 35.6 48.1 59.1-4.8-1.6-9.8-2.8-15-3.5 2.6427 6.46 5.3805 12.921 8.0273 19.381 13.915-5.2877 27.289-11.68 39.473-19.881v-10.299c-3.7-2.3-7.3004-4.6004-10.9-6.9004-9.2-5.8-18.1-11.401-25.5-15.801 7.2-.4 14.2-1.6 21-3.5-13.3-11.5-25.9-23.9-37.6-37.1-4.2-5.5-8.2-11.1-12-17-7.6-12-10.6-25-9-39.1 2.6-16.9 12.3-25.5 29.1-26 21.8 3.9 43.702 7.7 65.602 11.5 26.5 3.6 50.4-2.6 71.6-18.5 5.5-8.1 8.1004-17.1 7.4004-27-13-1.1-25.702-3.6-38.102-7.5-9.8-4.8-18.8-10.8-27-18-6.3-5-11.2-11.2-14.5-18.5-1.8-8-3.8-16-6-24-4.9-10.3-12.1-18.8-21.5-25.5-38-27.9-80.399-46-127.2-54.1-26.3-28.2-58.7-45.4-97.1-51.6zm15 19.799c17.8 4.9 33.2 13.9 46 27.1-8.8-4.6-17.8-8.9-27-13l-1 1c4.4 6.9 8.4 14.1 12 21.5-3.6-1-6.9-2.9-10-5.5l-1 1c1.5 6.7 2.8 13.3 4 20-11.4-15.6-19.1-32.9-23-52.1zm131.62 82.475c10.55.375 24.175 2.525 36.475 9.625 24.6 14.2 34.699 42.9 34.699 42.9s-28.499 3.2-53.199-11c-24.6-14.3-36-40.5-36-40.5s7.4754-1.4004 18.025-1.0254zm-129.12 234.03c-9.3909 11.289-16.487 23.876-21.287 37.859 5.1008 4.4393 10.436 8.6173 15.984 12.512-.39714-4.7898-.29604-9.4813.30273-14.271 1.3-12.1 3-24.1 5-36.1zm167.24 75.42c-1.9895.6609-3.957 1.3682-5.9746 1.9668 2.0217-.59922 3.9813-1.3039 5.9746-1.9668zm-29.275 7.3144c-1.9207.31996-3.8727.54349-5.8125.80664 1.9446-.261 3.8871-.48851 5.8125-.80664zm-31.781 2.7598c-.0448 4e-5-.088.006-.13281.006h.0508c.0279 0 .0541-.006.082-.006z" clip-rule="evenodd" fill-rule="evenodd"/></svg>
