<?xml version="1.0" encoding="UTF-8" standalone="no"?>
<!-- Created with Inkscape (http://www.inkscape.org/) -->

<svg
   width="180"
   height="180"
   viewBox="0 0 180 180"
   version="1.1"
   id="svg1"
   inkscape:version="1.4.2 (ebf0e940d0, 2025-05-08)"
   sodipodi:docname="gn.svg"
   xmlns:inkscape="http://www.inkscape.org/namespaces/inkscape"
   xmlns:sodipodi="http://sodipodi.sourceforge.net/DTD/sodipodi-0.dtd"
   xmlns="http://www.w3.org/2000/svg"
   xmlns:svg="http://www.w3.org/2000/svg">
  <sodipodi:namedview
     id="namedview1"
     pagecolor="#505050"
     bordercolor="#ffffff"
     borderopacity="1"
     inkscape:showpageshadow="0"
     inkscape:pageopacity="0"
     inkscape:pagecheckerboard="1"
     inkscape:deskcolor="#505050"
     inkscape:document-units="px"
     inkscape:zoom="6.4388889"
     inkscape:cx="90"
     inkscape:cy="90"
     inkscape:window-width="2558"
     inkscape:window-height="1367"
     inkscape:window-x="0"
     inkscape:window-y="0"
     inkscape:window-maximized="1"
     inkscape:current-layer="layer1" />
  <defs
     id="defs1" />
  <g
     inkscape:label="Layer 1"
     inkscape:groupmode="layer"
     id="layer1"
     transform="matrix(1.9661195,0,0,1.9661195,-55.380891,-133.44395)">
    <path
       class="st1"
       d="m 53.5,115.1 h 14.1 v 43.6 H 57.1 c 0,0 0,-34.4 0,-34.4 h -3.6 z m 0,-46.1 c 9.4,0 14.1,5.4 14.1,14 v 21.9 H 57.1 V 83.2 c 0,-2.4 -1,-3.9 -3.5,-3.9 -2.3,0 -3.5,1.4 -3.5,3.9 0,0 0,75.5 0,75.5 H 39 C 39,158.5 39,83 39,83 39,74.3 43.8,69 53.5,69 Z"
       id="path4"
       style="fill:currentColor">
  </path>
    <path
       class="st0"
       d="m 88.166005,158.7 h -10.6 V 70.1 h 10.4 c 0,0 10.3,45.9 10.5,46.7 0,-0.4 0,-46.7 0,-46.7 h 10.600005 v 88.6 H 96.566005 c 0,0 -8.3,-38.6 -8.4,-39.4 0,0.4 0,39.4 0,39.4 z"
       id="path6"
       style="clip-rule:evenodd;fill:currentColor;fill-rule:evenodd">
  </path>
  </g>
</svg>
