<?xml version="1.0" encoding="UTF-8" standalone="no"?>
<!-- Created with Inkscape (http://www.inkscape.org/) -->

<svg
   width="180"
   height="180"
   viewBox="0 0 180 180"
   version="1.1"
   id="svg1"
   inkscape:version="1.4.2 (ebf0e940d0, 2025-05-08)"
   sodipodi:docname="wired-square.svg"
   xmlns:inkscape="http://www.inkscape.org/namespaces/inkscape"
   xmlns:sodipodi="http://sodipodi.sourceforge.net/DTD/sodipodi-0.dtd"
   xmlns="http://www.w3.org/2000/svg"
   xmlns:svg="http://www.w3.org/2000/svg">
  <sodipodi:namedview
     id="namedview1"
     pagecolor="#505050"
     bordercolor="#ffffff"
     borderopacity="1"
     inkscape:showpageshadow="0"
     inkscape:pageopacity="0"
     inkscape:pagecheckerboard="1"
     inkscape:deskcolor="#505050"
     inkscape:document-units="px"
     inkscape:zoom="6.4388889"
     inkscape:cx="44.805867"
     inkscape:cy="78.507334"
     inkscape:window-width="2558"
     inkscape:window-height="1367"
     inkscape:window-x="0"
     inkscape:window-y="0"
     inkscape:window-maximized="1"
     inkscape:current-layer="layer1" />
  <defs
     id="defs1" />
  <g
     inkscape:label="Layer 1"
     inkscape:groupmode="layer"
     id="layer1">
    <path
       fill="currentColor"
       d="M 14.354629,13.195176 H 165.61338 V 167.7662 H 14.354629 Z m 11.127644,24.316592 c 6.789716,31.291424 12.824982,62.959352 19.237096,94.439232 1.131675,3.77006 0.377226,8.67108 4.14949,11.31018 6.60093,1.13095 13.390633,0.75371 19.991924,0.37685 3.583101,0.18853 4.526353,-4.14691 5.092015,-6.97445 4.526353,-22.43158 9.430292,-44.674718 13.956644,-67.10667 0.37724,-2.073459 0.942889,-4.146919 1.88614,-6.031948 5.658041,24.128181 10.372818,48.256348 15.465188,72.384538 0.75446,2.6391 0.94289,5.65508 3.39505,7.35168 7.16658,0.94251 14.5223,0.94251 21.68888,0 2.64058,-1.50816 2.64058,-4.71258 3.39504,-7.35168 6.60091,-32.79924 12.82497,-65.786933 19.80312,-98.586163 h -19.04867 c -5.09238,28.652309 -9.05307,57.304268 -14.71109,85.768173 -6.22369,-24.128187 -10.56162,-48.822023 -16.03122,-73.327047 -1.32011,-4.14692 -0.75447,-10.179235 -5.280812,-12.441126 -5.658035,-0.376858 -11.127275,-0.376858 -16.785679,0 -3.206238,0.188439 -3.960324,3.958491 -4.526352,6.409177 -4.337928,24.505023 -9.61873,48.633194 -14.522306,72.761386 -0.565663,2.26189 -1.320114,4.33534 -2.074578,6.59761 C 55.469789,94.627605 50.754999,65.975646 46.228283,37.511768 Z M 315.74045,13.195176 H 467.00104 V 167.7662 H 315.74045 Z m 34.13628,24.316592 V 143.44962 h 20.937 V 101.9793 h 34.13443 c 4.15135,-0.37723 9.05345,2.63913 9.05345,7.16291 0.56674,11.49862 1.5089,22.80879 2.26335,34.30741 h 19.99118 c -1.88431,-13.00679 0.3791,-26.39006 -3.20551,-39.01999 -1.88427,-6.597255 -9.24113,-8.105428 -14.8977,-9.802025 4.33536,-2.261897 9.80422,-2.45032 12.82204,-6.5976 4.52673,-5.654743 4.90578,-13.194865 4.90578,-20.169329 0,-8.105776 0.1877,-16.965269 -5.09348,-23.751304 -4.14763,-5.655088 -11.87988,-6.409174 -18.29458,-6.409174 C 391.37167,37.51176 370.62236,37.51176 349.87673,37.51176 Z M 617.50537,13.195176 H 770.6484 V 167.7662 H 617.50537 Z m 34.13439,24.316592 V 143.44962 h 52.80809 c 10.94143,-0.18853 23.57574,-2.26227 29.99046,-11.87546 7.73223,-12.25271 6.411,-27.14453 7.91992,-40.905049 C 741.03701,76.908601 742.17054,61.82836 734.43831,49.576032 728.40268,40.52774 716.7068,38.077424 706.52352,37.700198 688.22894,37.323337 669.93435,37.51176 651.63976,37.51176 Z M 204.0883,36.380823 h 73.1776 v 19.03873 h -25.83839 v 70.122267 h 25.83839 v 19.03875 h -73.1776 c -0.18879,-6.40918 -0.18879,-12.62957 0,-19.03875 h 25.83839 V 55.419553 H 204.0883 Z m 289.88172,0 c 29.79907,-0.188437 59.78585,-0.188437 89.58492,0 V 71.630737 H 564.13051 V 55.419553 h -35.08025 v 24.316593 h 28.29016 v 18.096229 h -28.29016 v 27.709445 c 12.07126,-0.18851 23.95114,0 36.02239,0 v -18.47308 h 19.8035 v 37.51183 h -90.90613 c -0.18768,-6.40883 0,-12.62957 0,-19.03875 h 14.33461 V 55.419553 h -14.33461 z"
       id="path1" />
    <path
       fill="currentColor"
       d="m 370.81373,54.85353 c 13.38879,0.188437 26.96897,-0.376859 40.36144,0.188437 5.28117,3.581632 4.14765,11.121752 4.33534,16.588044 -0.18768,5.089803 -0.37537,13.195212 -7.16547,13.57207 -12.44663,0.565657 -25.08465,0 -37.72268,0.188797 0.19137,-9.990808 0.19137,-20.358105 0.19137,-30.537341 z m 301.76307,3.66e-4 h 34.13442 c 5.09348,0 10.94142,2.450688 12.4503,7.54012 3.58091,10.178868 2.072,21.300621 2.45108,31.856727 -0.37908,8.482647 0.56675,17.342147 -3.01783,25.259127 -2.45104,5.08944 -8.67435,6.40917 -13.76784,6.40917 H 672.5768 Z"
       id="path2"/>
  </g>
</svg>
